<mxfile host="Electron" agent="Mozilla/5.0 (Windows NT 10.0; Win64; x64) AppleWebKit/537.36 (KHTML, like Gecko) draw.io/24.7.17 Chrome/128.0.6613.36 Electron/32.0.1 Safari/537.36" version="24.7.17">
  <diagram name="Page-1" id="lS4l_UGHyEnCVh-3E4Ck">
    <mxGraphModel dx="305" dy="689" grid="0" gridSize="10" guides="1" tooltips="1" connect="1" arrows="1" fold="1" page="0" pageScale="1" pageWidth="850" pageHeight="1100" background="none" math="0" shadow="0">
      <root>
        <mxCell id="0" />
        <mxCell id="1" parent="0" />
        <mxCell id="WClAUrq9EjlUU-zj0WXr-24" value="" style="edgeStyle=none;shape=connector;rounded=0;orthogonalLoop=1;jettySize=auto;html=1;strokeColor=default;align=center;verticalAlign=middle;fontFamily=Helvetica;fontSize=12;fontColor=default;labelBackgroundColor=default;endArrow=none;endFill=0;entryX=0;entryY=0.5;entryDx=0;entryDy=0;" parent="1" source="WClAUrq9EjlUU-zj0WXr-1" target="WClAUrq9EjlUU-zj0WXr-25" edge="1">
          <mxGeometry relative="1" as="geometry">
            <mxPoint x="1178.3106978042758" y="98.11506759505062" as="targetPoint" />
          </mxGeometry>
        </mxCell>
        <mxCell id="WClAUrq9EjlUU-zj0WXr-29" value="" style="edgeStyle=none;shape=connector;rounded=0;orthogonalLoop=1;jettySize=auto;html=1;strokeColor=default;align=center;verticalAlign=middle;fontFamily=Helvetica;fontSize=12;fontColor=default;labelBackgroundColor=default;endArrow=none;endFill=0;exitX=0.655;exitY=0.011;exitDx=0;exitDy=0;exitPerimeter=0;" parent="1" source="WClAUrq9EjlUU-zj0WXr-1" target="WClAUrq9EjlUU-zj0WXr-28" edge="1">
          <mxGeometry relative="1" as="geometry">
            <mxPoint x="1230" y="170" as="sourcePoint" />
          </mxGeometry>
        </mxCell>
        <mxCell id="WClAUrq9EjlUU-zj0WXr-32" value="" style="edgeStyle=none;shape=connector;rounded=0;orthogonalLoop=1;jettySize=auto;html=1;strokeColor=default;align=center;verticalAlign=middle;fontFamily=Helvetica;fontSize=12;fontColor=default;labelBackgroundColor=default;endArrow=none;endFill=0;" parent="1" source="WClAUrq9EjlUU-zj0WXr-1" target="WClAUrq9EjlUU-zj0WXr-31" edge="1">
          <mxGeometry relative="1" as="geometry" />
        </mxCell>
        <mxCell id="WClAUrq9EjlUU-zj0WXr-47" value="" style="edgeStyle=none;shape=connector;rounded=0;orthogonalLoop=1;jettySize=auto;html=1;strokeColor=default;align=center;verticalAlign=middle;fontFamily=Helvetica;fontSize=12;fontColor=default;labelBackgroundColor=default;endArrow=none;endFill=0;" parent="1" source="WClAUrq9EjlUU-zj0WXr-1" target="WClAUrq9EjlUU-zj0WXr-46" edge="1">
          <mxGeometry relative="1" as="geometry" />
        </mxCell>
        <mxCell id="WClAUrq9EjlUU-zj0WXr-55" value="" style="edgeStyle=none;shape=connector;rounded=0;orthogonalLoop=1;jettySize=auto;html=1;strokeColor=default;align=center;verticalAlign=middle;fontFamily=Helvetica;fontSize=12;fontColor=default;labelBackgroundColor=default;endArrow=none;endFill=0;entryX=0.5;entryY=0;entryDx=0;entryDy=0;" parent="1" source="WClAUrq9EjlUU-zj0WXr-1" target="WClAUrq9EjlUU-zj0WXr-54" edge="1">
          <mxGeometry relative="1" as="geometry" />
        </mxCell>
        <mxCell id="LdFAEq9sarEnEC0SSBv0-3" value="1" style="edgeLabel;html=1;align=center;verticalAlign=middle;resizable=0;points=[];" parent="WClAUrq9EjlUU-zj0WXr-55" vertex="1" connectable="0">
          <mxGeometry x="0.6594" y="3" relative="1" as="geometry">
            <mxPoint as="offset" />
          </mxGeometry>
        </mxCell>
        <mxCell id="jCe5e3LsCqJ8E380HKCm-11" style="rounded=0;orthogonalLoop=1;jettySize=auto;html=1;exitX=0.636;exitY=0.808;exitDx=0;exitDy=0;endArrow=none;endFill=0;exitPerimeter=0;entryX=0;entryY=0.25;entryDx=0;entryDy=0;shape=link;" parent="1" source="LdFAEq9sarEnEC0SSBv0-69" target="LdFAEq9sarEnEC0SSBv0-68" edge="1">
          <mxGeometry relative="1" as="geometry">
            <mxPoint x="1504.0600000000002" y="574.1100000000001" as="sourcePoint" />
            <Array as="points" />
            <mxPoint x="1694.21" y="680" as="targetPoint" />
          </mxGeometry>
        </mxCell>
        <mxCell id="LdFAEq9sarEnEC0SSBv0-27" value="N" style="edgeLabel;html=1;align=center;verticalAlign=middle;resizable=0;points=[];" parent="jCe5e3LsCqJ8E380HKCm-11" vertex="1" connectable="0">
          <mxGeometry x="-0.1122" y="4" relative="1" as="geometry">
            <mxPoint y="1" as="offset" />
          </mxGeometry>
        </mxCell>
        <mxCell id="jCe5e3LsCqJ8E380HKCm-28" style="edgeStyle=none;shape=link;rounded=0;orthogonalLoop=1;jettySize=auto;html=1;entryX=0;entryY=0.5;entryDx=0;entryDy=0;strokeColor=default;align=center;verticalAlign=middle;fontFamily=Helvetica;fontSize=11;fontColor=default;labelBackgroundColor=default;endArrow=none;endFill=0;" parent="1" source="jCe5e3LsCqJ8E380HKCm-29" target="eoPI0Xw65L_IwqqJkxbl-12" edge="1">
          <mxGeometry relative="1" as="geometry" />
        </mxCell>
        <mxCell id="LdFAEq9sarEnEC0SSBv0-5" value="N" style="edgeLabel;html=1;align=center;verticalAlign=middle;resizable=0;points=[];" parent="jCe5e3LsCqJ8E380HKCm-28" vertex="1" connectable="0">
          <mxGeometry x="0.6795" y="-1" relative="1" as="geometry">
            <mxPoint as="offset" />
          </mxGeometry>
        </mxCell>
        <mxCell id="TL0oi55XwLSw_DGboPtc-3" value="1" style="rounded=0;orthogonalLoop=1;jettySize=auto;html=1;exitX=1;exitY=0.25;exitDx=0;exitDy=0;entryX=1;entryY=0.5;entryDx=0;entryDy=0;endArrow=none;endFill=0;" parent="1" source="WClAUrq9EjlUU-zj0WXr-1" target="LdFAEq9sarEnEC0SSBv0-61" edge="1">
          <mxGeometry relative="1" as="geometry">
            <Array as="points">
              <mxPoint x="1565" y="152" />
            </Array>
          </mxGeometry>
        </mxCell>
        <mxCell id="WClAUrq9EjlUU-zj0WXr-49" value="" style="edgeStyle=none;shape=connector;rounded=0;orthogonalLoop=1;jettySize=auto;html=1;strokeColor=default;align=center;verticalAlign=middle;fontFamily=Helvetica;fontSize=12;fontColor=default;labelBackgroundColor=default;endArrow=none;endFill=0;" parent="1" source="WClAUrq9EjlUU-zj0WXr-14" target="WClAUrq9EjlUU-zj0WXr-48" edge="1">
          <mxGeometry relative="1" as="geometry" />
        </mxCell>
        <mxCell id="WClAUrq9EjlUU-zj0WXr-14" value="&lt;font face=&quot;Georgia&quot;&gt;VIP&lt;/font&gt;" style="whiteSpace=wrap;html=1;fillColor=#f5f5f5;strokeColor=#666666;fontColor=#333333;rounded=0;" parent="1" vertex="1">
          <mxGeometry x="1155" y="292.5" width="120" height="60" as="geometry" />
        </mxCell>
        <mxCell id="WClAUrq9EjlUU-zj0WXr-25" value="user id" style="ellipse;whiteSpace=wrap;html=1;align=center;fontStyle=4;rounded=0;strokeColor=default;verticalAlign=middle;fontFamily=Helvetica;fontSize=12;fontColor=default;fillColor=default;" parent="1" vertex="1">
          <mxGeometry x="997.5" y="162.5" width="100" height="40" as="geometry" />
        </mxCell>
        <mxCell id="WClAUrq9EjlUU-zj0WXr-28" value="&lt;u&gt;phone number&lt;/u&gt;" style="ellipse;whiteSpace=wrap;html=1;rounded=0;" parent="1" vertex="1">
          <mxGeometry x="1147.96" y="67.5" width="100" height="40" as="geometry" />
        </mxCell>
        <mxCell id="WClAUrq9EjlUU-zj0WXr-31" value="name" style="ellipse;whiteSpace=wrap;html=1;rounded=0;" parent="1" vertex="1">
          <mxGeometry x="1067.96" y="110" width="90" height="40" as="geometry" />
        </mxCell>
        <mxCell id="WClAUrq9EjlUU-zj0WXr-33" value="" style="edgeStyle=none;shape=connector;rounded=0;orthogonalLoop=1;jettySize=auto;html=1;strokeColor=default;align=center;verticalAlign=middle;fontFamily=Helvetica;fontSize=12;fontColor=default;labelBackgroundColor=default;endArrow=none;endFill=0;exitX=0.5;exitY=0;exitDx=0;exitDy=0;" parent="1" source="WClAUrq9EjlUU-zj0WXr-1" target="WClAUrq9EjlUU-zj0WXr-34" edge="1">
          <mxGeometry relative="1" as="geometry">
            <mxPoint x="1017.96" y="90" as="sourcePoint" />
          </mxGeometry>
        </mxCell>
        <mxCell id="WClAUrq9EjlUU-zj0WXr-34" value="last name" style="ellipse;whiteSpace=wrap;html=1;rounded=0;" parent="1" vertex="1">
          <mxGeometry x="1057.96" y="50" width="90" height="40" as="geometry" />
        </mxCell>
        <mxCell id="WClAUrq9EjlUU-zj0WXr-40" value="" style="edgeStyle=none;shape=connector;rounded=0;orthogonalLoop=1;jettySize=auto;html=1;strokeColor=default;align=center;verticalAlign=middle;fontFamily=Helvetica;fontSize=12;fontColor=default;labelBackgroundColor=default;endArrow=none;endFill=0;" parent="1" source="WClAUrq9EjlUU-zj0WXr-39" target="WClAUrq9EjlUU-zj0WXr-1" edge="1">
          <mxGeometry relative="1" as="geometry" />
        </mxCell>
        <mxCell id="WClAUrq9EjlUU-zj0WXr-42" value="" style="edgeStyle=none;shape=connector;rounded=0;orthogonalLoop=1;jettySize=auto;html=1;strokeColor=default;align=center;verticalAlign=middle;fontFamily=Helvetica;fontSize=12;fontColor=default;labelBackgroundColor=default;endArrow=none;endFill=0;" parent="1" source="WClAUrq9EjlUU-zj0WXr-39" target="WClAUrq9EjlUU-zj0WXr-41" edge="1">
          <mxGeometry relative="1" as="geometry" />
        </mxCell>
        <mxCell id="WClAUrq9EjlUU-zj0WXr-45" value="" style="edgeStyle=none;shape=connector;rounded=0;orthogonalLoop=1;jettySize=auto;html=1;strokeColor=default;align=center;verticalAlign=middle;fontFamily=Helvetica;fontSize=12;fontColor=default;labelBackgroundColor=default;endArrow=none;endFill=0;" parent="1" source="WClAUrq9EjlUU-zj0WXr-39" target="WClAUrq9EjlUU-zj0WXr-44" edge="1">
          <mxGeometry relative="1" as="geometry" />
        </mxCell>
        <mxCell id="WClAUrq9EjlUU-zj0WXr-39" value="address" style="ellipse;shape=doubleEllipse;margin=3;whiteSpace=wrap;html=1;align=center;rounded=0;strokeColor=default;verticalAlign=middle;fontFamily=Helvetica;fontSize=12;fontColor=default;fillColor=default;" parent="1" vertex="1">
          <mxGeometry x="1237.96" y="107.5" width="100" height="40" as="geometry" />
        </mxCell>
        <mxCell id="WClAUrq9EjlUU-zj0WXr-41" value="province" style="ellipse;whiteSpace=wrap;html=1;rounded=0;" parent="1" vertex="1">
          <mxGeometry x="1247.96" y="40" width="80" height="40" as="geometry" />
        </mxCell>
        <mxCell id="WClAUrq9EjlUU-zj0WXr-44" value="address" style="ellipse;whiteSpace=wrap;html=1;rounded=0;" parent="1" vertex="1">
          <mxGeometry x="1317.96" y="70" width="80" height="40" as="geometry" />
        </mxCell>
        <mxCell id="WClAUrq9EjlUU-zj0WXr-46" value="wallet balance" style="ellipse;whiteSpace=wrap;html=1;rounded=0;" parent="1" vertex="1">
          <mxGeometry x="967.96" y="112.5" width="90" height="40" as="geometry" />
        </mxCell>
        <mxCell id="WClAUrq9EjlUU-zj0WXr-48" value="expire date" style="ellipse;whiteSpace=wrap;html=1;rounded=0;" parent="1" vertex="1">
          <mxGeometry x="1065" y="357" width="90" height="40" as="geometry" />
        </mxCell>
        <mxCell id="WClAUrq9EjlUU-zj0WXr-56" style="edgeStyle=none;shape=connector;rounded=0;orthogonalLoop=1;jettySize=auto;html=1;entryX=0.973;entryY=0.856;entryDx=0;entryDy=0;strokeColor=default;align=center;verticalAlign=middle;fontFamily=Helvetica;fontSize=12;fontColor=default;labelBackgroundColor=default;endArrow=none;endFill=0;exitX=0.5;exitY=1;exitDx=0;exitDy=0;entryPerimeter=0;" parent="1" source="WClAUrq9EjlUU-zj0WXr-54" target="WClAUrq9EjlUU-zj0WXr-1" edge="1">
          <mxGeometry relative="1" as="geometry" />
        </mxCell>
        <mxCell id="LdFAEq9sarEnEC0SSBv0-4" value="N" style="edgeLabel;html=1;align=center;verticalAlign=middle;resizable=0;points=[];" parent="WClAUrq9EjlUU-zj0WXr-56" vertex="1" connectable="0">
          <mxGeometry x="-0.5649" y="-1" relative="1" as="geometry">
            <mxPoint y="1" as="offset" />
          </mxGeometry>
        </mxCell>
        <mxCell id="WClAUrq9EjlUU-zj0WXr-54" value="&lt;font face=&quot;Georgia&quot;&gt;REFFER_TO&lt;/font&gt;" style="rhombus;whiteSpace=wrap;html=1;fillColor=#f5f5f5;strokeColor=#666666;fontColor=#333333;rounded=0;" parent="1" vertex="1">
          <mxGeometry x="1579" y="221" width="100" height="80" as="geometry" />
        </mxCell>
        <mxCell id="WClAUrq9EjlUU-zj0WXr-64" value="" style="edgeStyle=orthogonalEdgeStyle;rounded=0;orthogonalLoop=1;jettySize=auto;html=1;fontFamily=Helvetica;fontSize=12;fontColor=#333333;endArrow=none;endFill=0;shape=link;" parent="1" source="WClAUrq9EjlUU-zj0WXr-65" target="WClAUrq9EjlUU-zj0WXr-68" edge="1">
          <mxGeometry relative="1" as="geometry" />
        </mxCell>
        <mxCell id="WClAUrq9EjlUU-zj0WXr-89" value="" style="edgeStyle=none;shape=connector;rounded=0;orthogonalLoop=1;jettySize=auto;html=1;strokeColor=default;align=center;verticalAlign=middle;fontFamily=Helvetica;fontSize=12;fontColor=default;labelBackgroundColor=default;endArrow=none;endFill=0;" parent="1" source="WClAUrq9EjlUU-zj0WXr-65" target="WClAUrq9EjlUU-zj0WXr-88" edge="1">
          <mxGeometry relative="1" as="geometry" />
        </mxCell>
        <mxCell id="WClAUrq9EjlUU-zj0WXr-92" value="" style="edgeStyle=none;shape=connector;rounded=0;orthogonalLoop=1;jettySize=auto;html=1;strokeColor=default;align=center;verticalAlign=middle;fontFamily=Helvetica;fontSize=12;fontColor=default;labelBackgroundColor=default;endArrow=none;endFill=0;" parent="1" source="WClAUrq9EjlUU-zj0WXr-65" target="WClAUrq9EjlUU-zj0WXr-91" edge="1">
          <mxGeometry relative="1" as="geometry" />
        </mxCell>
        <mxCell id="WClAUrq9EjlUU-zj0WXr-94" value="" style="edgeStyle=none;shape=connector;rounded=0;orthogonalLoop=1;jettySize=auto;html=1;strokeColor=default;align=center;verticalAlign=middle;fontFamily=Helvetica;fontSize=12;fontColor=default;labelBackgroundColor=default;endArrow=none;endFill=0;" parent="1" source="WClAUrq9EjlUU-zj0WXr-65" target="WClAUrq9EjlUU-zj0WXr-93" edge="1">
          <mxGeometry relative="1" as="geometry" />
        </mxCell>
        <mxCell id="WClAUrq9EjlUU-zj0WXr-96" value="" style="edgeStyle=none;shape=connector;rounded=0;orthogonalLoop=1;jettySize=auto;html=1;strokeColor=default;align=center;verticalAlign=middle;fontFamily=Helvetica;fontSize=12;fontColor=default;labelBackgroundColor=default;endArrow=none;endFill=0;entryX=0.273;entryY=0.862;entryDx=0;entryDy=0;entryPerimeter=0;" parent="1" source="WClAUrq9EjlUU-zj0WXr-65" target="WClAUrq9EjlUU-zj0WXr-99" edge="1">
          <mxGeometry relative="1" as="geometry">
            <mxPoint x="2354.410851946564" y="778.6738784670699" as="targetPoint" />
          </mxGeometry>
        </mxCell>
        <mxCell id="jCe5e3LsCqJ8E380HKCm-17" style="edgeStyle=none;shape=connector;rounded=0;orthogonalLoop=1;jettySize=auto;html=1;strokeColor=default;align=center;verticalAlign=middle;fontFamily=Helvetica;fontSize=11;fontColor=default;labelBackgroundColor=default;endArrow=none;endFill=0;exitX=0;exitY=0.25;exitDx=0;exitDy=0;entryX=1;entryY=0.5;entryDx=0;entryDy=0;" parent="1" source="TL0oi55XwLSw_DGboPtc-13" target="LdFAEq9sarEnEC0SSBv0-68" edge="1">
          <mxGeometry relative="1" as="geometry">
            <mxPoint x="2067.96" y="760" as="sourcePoint" />
            <mxPoint x="1783" y="706" as="targetPoint" />
          </mxGeometry>
        </mxCell>
        <mxCell id="TL0oi55XwLSw_DGboPtc-51" value="1" style="edgeLabel;html=1;align=center;verticalAlign=middle;resizable=0;points=[];" parent="jCe5e3LsCqJ8E380HKCm-17" vertex="1" connectable="0">
          <mxGeometry x="0.0082" y="-2" relative="1" as="geometry">
            <mxPoint x="1" as="offset" />
          </mxGeometry>
        </mxCell>
        <mxCell id="WClAUrq9EjlUU-zj0WXr-65" value="&lt;font face=&quot;Georgia&quot;&gt;&lt;span style=&quot;font-size: 15px;&quot;&gt;part&lt;/span&gt;&lt;/font&gt;" style="rounded=0;whiteSpace=wrap;html=1;fillColor=#f5f5f5;fontColor=#333333;strokeColor=#666666;" parent="1" vertex="1">
          <mxGeometry x="2175" y="844.82" width="120" height="60" as="geometry" />
        </mxCell>
        <mxCell id="WClAUrq9EjlUU-zj0WXr-283" style="edgeStyle=none;shape=connector;rounded=0;orthogonalLoop=1;jettySize=auto;html=1;strokeColor=default;align=center;verticalAlign=middle;fontFamily=Helvetica;fontSize=12;fontColor=default;labelBackgroundColor=default;endArrow=none;endFill=0;entryX=1;entryY=0.5;entryDx=0;entryDy=0;" parent="1" source="WClAUrq9EjlUU-zj0WXr-70" target="WClAUrq9EjlUU-zj0WXr-285" edge="1">
          <mxGeometry relative="1" as="geometry">
            <mxPoint x="1930.75" y="1995" as="targetPoint" />
          </mxGeometry>
        </mxCell>
        <mxCell id="LdFAEq9sarEnEC0SSBv0-12" value="N" style="edgeLabel;html=1;align=center;verticalAlign=middle;resizable=0;points=[];" parent="WClAUrq9EjlUU-zj0WXr-283" vertex="1" connectable="0">
          <mxGeometry x="0.2492" y="-2" relative="1" as="geometry">
            <mxPoint as="offset" />
          </mxGeometry>
        </mxCell>
        <mxCell id="WClAUrq9EjlUU-zj0WXr-111" value="" style="edgeStyle=none;shape=connector;rounded=0;orthogonalLoop=1;jettySize=auto;html=1;strokeColor=default;align=center;verticalAlign=middle;fontFamily=Helvetica;fontSize=12;fontColor=default;labelBackgroundColor=default;endArrow=none;endFill=0;exitX=1;exitY=1;exitDx=0;exitDy=0;" parent="1" source="WClAUrq9EjlUU-zj0WXr-71" target="WClAUrq9EjlUU-zj0WXr-110" edge="1">
          <mxGeometry relative="1" as="geometry">
            <mxPoint x="2662.5" y="1054.3028709615123" as="sourcePoint" />
          </mxGeometry>
        </mxCell>
        <mxCell id="WClAUrq9EjlUU-zj0WXr-115" value="" style="edgeStyle=none;shape=connector;rounded=0;orthogonalLoop=1;jettySize=auto;html=1;strokeColor=default;align=center;verticalAlign=middle;fontFamily=Helvetica;fontSize=12;fontColor=default;labelBackgroundColor=default;endArrow=none;endFill=0;" parent="1" source="WClAUrq9EjlUU-zj0WXr-71" target="WClAUrq9EjlUU-zj0WXr-114" edge="1">
          <mxGeometry relative="1" as="geometry" />
        </mxCell>
        <mxCell id="WClAUrq9EjlUU-zj0WXr-78" value="&lt;font face=&quot;Georgia&quot;&gt;Power supply&lt;/font&gt;" style="whiteSpace=wrap;html=1;fillColor=#f5f5f5;strokeColor=#666666;fontColor=#333333;rounded=0;" parent="1" vertex="1">
          <mxGeometry x="2680" y="1454.64" width="120" height="60" as="geometry" />
        </mxCell>
        <mxCell id="WClAUrq9EjlUU-zj0WXr-282" style="edgeStyle=none;shape=connector;rounded=0;orthogonalLoop=1;jettySize=auto;html=1;strokeColor=default;align=center;verticalAlign=middle;fontFamily=Helvetica;fontSize=12;fontColor=default;labelBackgroundColor=default;endArrow=none;endFill=0;entryX=0.5;entryY=1;entryDx=0;entryDy=0;exitX=1;exitY=0.5;exitDx=0;exitDy=0;" parent="1" source="WClAUrq9EjlUU-zj0WXr-82" target="WClAUrq9EjlUU-zj0WXr-285" edge="1">
          <mxGeometry relative="1" as="geometry">
            <mxPoint x="2400" y="1600" as="targetPoint" />
          </mxGeometry>
        </mxCell>
        <mxCell id="LdFAEq9sarEnEC0SSBv0-11" value="M" style="edgeLabel;html=1;align=center;verticalAlign=middle;resizable=0;points=[];" parent="WClAUrq9EjlUU-zj0WXr-282" vertex="1" connectable="0">
          <mxGeometry x="-0.473" y="3" relative="1" as="geometry">
            <mxPoint as="offset" />
          </mxGeometry>
        </mxCell>
        <mxCell id="WClAUrq9EjlUU-zj0WXr-84" value="&lt;font face=&quot;Georgia&quot;&gt;HDD&lt;/font&gt;" style="whiteSpace=wrap;html=1;fillColor=#f5f5f5;strokeColor=#666666;fontColor=#333333;rounded=0;" parent="1" vertex="1">
          <mxGeometry x="3145" y="1218.44" width="120" height="60" as="geometry" />
        </mxCell>
        <mxCell id="WClAUrq9EjlUU-zj0WXr-86" value="" style="edgeStyle=none;shape=connector;rounded=0;orthogonalLoop=1;jettySize=auto;html=1;strokeColor=default;align=center;verticalAlign=middle;fontFamily=Helvetica;fontSize=12;fontColor=default;labelBackgroundColor=default;endArrow=none;endFill=0;entryX=0;entryY=0.5;entryDx=0;entryDy=0;" parent="1" source="WClAUrq9EjlUU-zj0WXr-65" target="WClAUrq9EjlUU-zj0WXr-87" edge="1">
          <mxGeometry relative="1" as="geometry">
            <mxPoint x="2265" y="834.9999999999998" as="sourcePoint" />
            <mxPoint x="2755.350697804276" y="858.1150675950506" as="targetPoint" />
          </mxGeometry>
        </mxCell>
        <mxCell id="WClAUrq9EjlUU-zj0WXr-87" value="id" style="ellipse;whiteSpace=wrap;html=1;align=center;fontStyle=4;rounded=0;strokeColor=default;verticalAlign=middle;fontFamily=Helvetica;fontSize=12;fontColor=default;fillColor=default;" parent="1" vertex="1">
          <mxGeometry x="2317.5" y="940" width="100" height="40" as="geometry" />
        </mxCell>
        <mxCell id="WClAUrq9EjlUU-zj0WXr-88" value="type" style="ellipse;whiteSpace=wrap;html=1;rounded=0;" parent="1" vertex="1">
          <mxGeometry x="2362.5" y="890" width="95" height="40" as="geometry" />
        </mxCell>
        <mxCell id="WClAUrq9EjlUU-zj0WXr-91" value="photo" style="ellipse;whiteSpace=wrap;html=1;rounded=0;" parent="1" vertex="1">
          <mxGeometry x="2357.5" y="840" width="100" height="40" as="geometry" />
        </mxCell>
        <mxCell id="WClAUrq9EjlUU-zj0WXr-93" value="price" style="ellipse;whiteSpace=wrap;html=1;rounded=0;" parent="1" vertex="1">
          <mxGeometry x="2345" y="790" width="105" height="40" as="geometry" />
        </mxCell>
        <mxCell id="WClAUrq9EjlUU-zj0WXr-264" value="" style="edgeStyle=none;shape=connector;rounded=0;orthogonalLoop=1;jettySize=auto;html=1;strokeColor=default;align=center;verticalAlign=middle;fontFamily=Helvetica;fontSize=12;fontColor=default;labelBackgroundColor=default;endArrow=none;endFill=0;" parent="1" source="WClAUrq9EjlUU-zj0WXr-99" target="WClAUrq9EjlUU-zj0WXr-263" edge="1">
          <mxGeometry relative="1" as="geometry" />
        </mxCell>
        <mxCell id="WClAUrq9EjlUU-zj0WXr-267" value="" style="edgeStyle=none;shape=connector;rounded=0;orthogonalLoop=1;jettySize=auto;html=1;strokeColor=default;align=center;verticalAlign=middle;fontFamily=Helvetica;fontSize=12;fontColor=default;labelBackgroundColor=default;endArrow=none;endFill=0;" parent="1" source="WClAUrq9EjlUU-zj0WXr-99" target="WClAUrq9EjlUU-zj0WXr-266" edge="1">
          <mxGeometry relative="1" as="geometry" />
        </mxCell>
        <mxCell id="WClAUrq9EjlUU-zj0WXr-99" value="price history" style="ellipse;shape=doubleEllipse;margin=3;whiteSpace=wrap;html=1;align=center;rounded=0;strokeColor=default;verticalAlign=middle;fontFamily=Helvetica;fontSize=12;fontColor=default;fillColor=default;" parent="1" vertex="1">
          <mxGeometry x="2310" y="740" width="117.5" height="40" as="geometry" />
        </mxCell>
        <mxCell id="WClAUrq9EjlUU-zj0WXr-100" value="" style="edgeStyle=none;shape=connector;rounded=0;orthogonalLoop=1;jettySize=auto;html=1;strokeColor=default;align=center;verticalAlign=middle;fontFamily=Helvetica;fontSize=12;fontColor=default;labelBackgroundColor=default;endArrow=none;endFill=0;exitX=1;exitY=0.75;exitDx=0;exitDy=0;" parent="1" source="WClAUrq9EjlUU-zj0WXr-71" target="WClAUrq9EjlUU-zj0WXr-106" edge="1">
          <mxGeometry relative="1" as="geometry">
            <mxPoint x="2662.5" y="1045" as="sourcePoint" />
          </mxGeometry>
        </mxCell>
        <mxCell id="WClAUrq9EjlUU-zj0WXr-101" value="" style="edgeStyle=none;shape=connector;rounded=0;orthogonalLoop=1;jettySize=auto;html=1;strokeColor=default;align=center;verticalAlign=middle;fontFamily=Helvetica;fontSize=12;fontColor=default;labelBackgroundColor=default;endArrow=none;endFill=0;exitX=1;exitY=0.5;exitDx=0;exitDy=0;" parent="1" source="WClAUrq9EjlUU-zj0WXr-71" target="WClAUrq9EjlUU-zj0WXr-107" edge="1">
          <mxGeometry relative="1" as="geometry">
            <mxPoint x="2662.5" y="1030.0000000000002" as="sourcePoint" />
          </mxGeometry>
        </mxCell>
        <mxCell id="WClAUrq9EjlUU-zj0WXr-102" value="" style="edgeStyle=none;shape=connector;rounded=0;orthogonalLoop=1;jettySize=auto;html=1;strokeColor=default;align=center;verticalAlign=middle;fontFamily=Helvetica;fontSize=12;fontColor=default;labelBackgroundColor=default;endArrow=none;endFill=0;exitX=0.886;exitY=0.102;exitDx=0;exitDy=0;exitPerimeter=0;" parent="1" source="WClAUrq9EjlUU-zj0WXr-71" target="WClAUrq9EjlUU-zj0WXr-108" edge="1">
          <mxGeometry relative="1" as="geometry">
            <mxPoint x="2662.5" y="1015.0000000000002" as="sourcePoint" />
          </mxGeometry>
        </mxCell>
        <mxCell id="WClAUrq9EjlUU-zj0WXr-106" value="brand" style="ellipse;whiteSpace=wrap;html=1;rounded=0;" parent="1" vertex="1">
          <mxGeometry x="2880" y="1278.44" width="95" height="40" as="geometry" />
        </mxCell>
        <mxCell id="WClAUrq9EjlUU-zj0WXr-107" value="model" style="ellipse;whiteSpace=wrap;html=1;rounded=0;" parent="1" vertex="1">
          <mxGeometry x="2945" y="1228.44" width="100" height="40" as="geometry" />
        </mxCell>
        <mxCell id="WClAUrq9EjlUU-zj0WXr-108" value="generation" style="ellipse;whiteSpace=wrap;html=1;rounded=0;" parent="1" vertex="1">
          <mxGeometry x="2830" y="1220" width="105" height="40" as="geometry" />
        </mxCell>
        <mxCell id="WClAUrq9EjlUU-zj0WXr-110" value="capacity" style="ellipse;whiteSpace=wrap;html=1;rounded=0;" parent="1" vertex="1">
          <mxGeometry x="2857.5" y="1337.5" width="105" height="40" as="geometry" />
        </mxCell>
        <mxCell id="WClAUrq9EjlUU-zj0WXr-112" value="" style="edgeStyle=none;shape=connector;rounded=0;orthogonalLoop=1;jettySize=auto;html=1;strokeColor=default;align=center;verticalAlign=middle;fontFamily=Helvetica;fontSize=12;fontColor=default;labelBackgroundColor=default;endArrow=none;endFill=0;exitX=1;exitY=1;exitDx=0;exitDy=0;" parent="1" source="WClAUrq9EjlUU-zj0WXr-71" target="WClAUrq9EjlUU-zj0WXr-113" edge="1">
          <mxGeometry relative="1" as="geometry">
            <mxPoint x="2737.5" y="1310" as="sourcePoint" />
          </mxGeometry>
        </mxCell>
        <mxCell id="WClAUrq9EjlUU-zj0WXr-113" value="frequency" style="ellipse;whiteSpace=wrap;html=1;rounded=0;" parent="1" vertex="1">
          <mxGeometry x="2840" y="1398.44" width="105" height="40" as="geometry" />
        </mxCell>
        <mxCell id="WClAUrq9EjlUU-zj0WXr-114" value="wattage" style="ellipse;whiteSpace=wrap;html=1;rounded=0;" parent="1" vertex="1">
          <mxGeometry x="2720" y="1374.64" width="130" height="40" as="geometry" />
        </mxCell>
        <mxCell id="WClAUrq9EjlUU-zj0WXr-116" value="" style="edgeStyle=none;shape=connector;rounded=0;orthogonalLoop=1;jettySize=auto;html=1;strokeColor=default;align=center;verticalAlign=middle;fontFamily=Helvetica;fontSize=12;fontColor=default;labelBackgroundColor=default;endArrow=none;endFill=0;exitX=0.75;exitY=1;exitDx=0;exitDy=0;" parent="1" source="WClAUrq9EjlUU-zj0WXr-76" target="WClAUrq9EjlUU-zj0WXr-124" edge="1">
          <mxGeometry relative="1" as="geometry">
            <mxPoint x="2325.75" y="1748.44" as="sourcePoint" />
          </mxGeometry>
        </mxCell>
        <mxCell id="WClAUrq9EjlUU-zj0WXr-117" value="" style="edgeStyle=none;shape=connector;rounded=0;orthogonalLoop=1;jettySize=auto;html=1;strokeColor=default;align=center;verticalAlign=middle;fontFamily=Helvetica;fontSize=12;fontColor=default;labelBackgroundColor=default;endArrow=none;endFill=0;exitX=0.66;exitY=0.98;exitDx=0;exitDy=0;exitPerimeter=0;" parent="1" source="WClAUrq9EjlUU-zj0WXr-76" target="WClAUrq9EjlUU-zj0WXr-127" edge="1">
          <mxGeometry relative="1" as="geometry">
            <mxPoint x="2309.75" y="1688.44" as="sourcePoint" />
          </mxGeometry>
        </mxCell>
        <mxCell id="WClAUrq9EjlUU-zj0WXr-118" value="" style="edgeStyle=none;shape=connector;rounded=0;orthogonalLoop=1;jettySize=auto;html=1;strokeColor=default;align=center;verticalAlign=middle;fontFamily=Helvetica;fontSize=12;fontColor=default;labelBackgroundColor=default;endArrow=none;endFill=0;exitX=0.25;exitY=1;exitDx=0;exitDy=0;" parent="1" source="WClAUrq9EjlUU-zj0WXr-76" target="WClAUrq9EjlUU-zj0WXr-121" edge="1">
          <mxGeometry relative="1" as="geometry">
            <mxPoint x="2354.75" y="1733.44" as="sourcePoint" />
          </mxGeometry>
        </mxCell>
        <mxCell id="WClAUrq9EjlUU-zj0WXr-119" value="" style="edgeStyle=none;shape=connector;rounded=0;orthogonalLoop=1;jettySize=auto;html=1;strokeColor=default;align=center;verticalAlign=middle;fontFamily=Helvetica;fontSize=12;fontColor=default;labelBackgroundColor=default;endArrow=none;endFill=0;exitX=0.5;exitY=1;exitDx=0;exitDy=0;" parent="1" source="WClAUrq9EjlUU-zj0WXr-76" target="WClAUrq9EjlUU-zj0WXr-122" edge="1">
          <mxGeometry relative="1" as="geometry">
            <mxPoint x="2424.5499999999997" y="1448.4400000000003" as="sourcePoint" />
          </mxGeometry>
        </mxCell>
        <mxCell id="WClAUrq9EjlUU-zj0WXr-120" value="" style="edgeStyle=none;shape=connector;rounded=0;orthogonalLoop=1;jettySize=auto;html=1;strokeColor=default;align=center;verticalAlign=middle;fontFamily=Helvetica;fontSize=12;fontColor=default;labelBackgroundColor=default;endArrow=none;endFill=0;exitX=0.88;exitY=0.98;exitDx=0;exitDy=0;exitPerimeter=0;" parent="1" source="WClAUrq9EjlUU-zj0WXr-76" target="WClAUrq9EjlUU-zj0WXr-123" edge="1">
          <mxGeometry relative="1" as="geometry">
            <mxPoint x="2354.75" y="1703.44" as="sourcePoint" />
          </mxGeometry>
        </mxCell>
        <mxCell id="WClAUrq9EjlUU-zj0WXr-121" value="brand" style="ellipse;whiteSpace=wrap;html=1;rounded=0;" parent="1" vertex="1">
          <mxGeometry x="2175" y="1720.0000000000002" width="95" height="40" as="geometry" />
        </mxCell>
        <mxCell id="WClAUrq9EjlUU-zj0WXr-122" value="model" style="ellipse;whiteSpace=wrap;html=1;rounded=0;" parent="1" vertex="1">
          <mxGeometry x="2245" y="1680.0000000000002" width="100" height="40" as="geometry" />
        </mxCell>
        <mxCell id="WClAUrq9EjlUU-zj0WXr-123" value="dimensions" style="ellipse;whiteSpace=wrap;html=1;rounded=0;" parent="1" vertex="1">
          <mxGeometry x="2405" y="1650.0000000000002" width="105" height="40" as="geometry" />
        </mxCell>
        <mxCell id="WClAUrq9EjlUU-zj0WXr-124" value="number of fan" style="ellipse;whiteSpace=wrap;html=1;rounded=0;" parent="1" vertex="1">
          <mxGeometry x="2362.5" y="1690.0000000000002" width="105" height="40" as="geometry" />
        </mxCell>
        <mxCell id="WClAUrq9EjlUU-zj0WXr-125" value="" style="edgeStyle=none;shape=connector;rounded=0;orthogonalLoop=1;jettySize=auto;html=1;strokeColor=default;align=center;verticalAlign=middle;fontFamily=Helvetica;fontSize=12;fontColor=default;labelBackgroundColor=default;endArrow=none;endFill=0;exitX=0.124;exitY=0.945;exitDx=0;exitDy=0;exitPerimeter=0;" parent="1" source="WClAUrq9EjlUU-zj0WXr-76" target="WClAUrq9EjlUU-zj0WXr-126" edge="1">
          <mxGeometry relative="1" as="geometry">
            <mxPoint x="2308.75" y="1750.44" as="sourcePoint" />
          </mxGeometry>
        </mxCell>
        <mxCell id="WClAUrq9EjlUU-zj0WXr-126" value="clock speed" style="ellipse;whiteSpace=wrap;html=1;rounded=0;" parent="1" vertex="1">
          <mxGeometry x="2110" y="1670.0000000000002" width="105" height="40" as="geometry" />
        </mxCell>
        <mxCell id="WClAUrq9EjlUU-zj0WXr-127" value="wattage" style="ellipse;whiteSpace=wrap;html=1;rounded=0;" parent="1" vertex="1">
          <mxGeometry x="2310" y="1730" width="97.5" height="40" as="geometry" />
        </mxCell>
        <mxCell id="WClAUrq9EjlUU-zj0WXr-128" value="" style="edgeStyle=none;shape=connector;rounded=0;orthogonalLoop=1;jettySize=auto;html=1;strokeColor=default;align=center;verticalAlign=middle;fontFamily=Helvetica;fontSize=12;fontColor=default;labelBackgroundColor=default;endArrow=none;endFill=0;exitX=1;exitY=0.5;exitDx=0;exitDy=0;" parent="1" source="WClAUrq9EjlUU-zj0WXr-76" target="WClAUrq9EjlUU-zj0WXr-129" edge="1">
          <mxGeometry relative="1" as="geometry">
            <mxPoint x="3125" y="1398.8" as="sourcePoint" />
          </mxGeometry>
        </mxCell>
        <mxCell id="WClAUrq9EjlUU-zj0WXr-129" value="RAM size" style="ellipse;whiteSpace=wrap;html=1;rounded=0;" parent="1" vertex="1">
          <mxGeometry x="2417.5" y="1585.0000000000002" width="105" height="40" as="geometry" />
        </mxCell>
        <mxCell id="WClAUrq9EjlUU-zj0WXr-71" value="&lt;font face=&quot;Georgia&quot;&gt;RAM stick&lt;/font&gt;" style="rounded=0;whiteSpace=wrap;html=1;fillColor=#f5f5f5;strokeColor=#666666;fontColor=#333333;" parent="1" vertex="1">
          <mxGeometry x="2687.5" y="1268.44" width="120" height="60" as="geometry" />
        </mxCell>
        <mxCell id="WClAUrq9EjlUU-zj0WXr-132" value="" style="edgeStyle=none;shape=connector;rounded=0;orthogonalLoop=1;jettySize=auto;html=1;strokeColor=default;align=center;verticalAlign=middle;fontFamily=Helvetica;fontSize=12;fontColor=default;labelBackgroundColor=default;endArrow=none;endFill=0;exitX=0.861;exitY=0.981;exitDx=0;exitDy=0;exitPerimeter=0;" parent="1" source="WClAUrq9EjlUU-zj0WXr-70" target="WClAUrq9EjlUU-zj0WXr-140" edge="1">
          <mxGeometry relative="1" as="geometry">
            <mxPoint x="2154.5" y="1935" as="sourcePoint" />
          </mxGeometry>
        </mxCell>
        <mxCell id="WClAUrq9EjlUU-zj0WXr-133" value="" style="edgeStyle=none;shape=connector;rounded=0;orthogonalLoop=1;jettySize=auto;html=1;strokeColor=default;align=center;verticalAlign=middle;fontFamily=Helvetica;fontSize=12;fontColor=default;labelBackgroundColor=default;endArrow=none;endFill=0;exitX=0.75;exitY=1;exitDx=0;exitDy=0;entryX=0.731;entryY=0;entryDx=0;entryDy=0;entryPerimeter=0;" parent="1" source="WClAUrq9EjlUU-zj0WXr-70" target="WClAUrq9EjlUU-zj0WXr-143" edge="1">
          <mxGeometry relative="1" as="geometry">
            <mxPoint x="2113.5" y="1949" as="sourcePoint" />
          </mxGeometry>
        </mxCell>
        <mxCell id="WClAUrq9EjlUU-zj0WXr-134" value="" style="edgeStyle=none;shape=connector;rounded=0;orthogonalLoop=1;jettySize=auto;html=1;strokeColor=default;align=center;verticalAlign=middle;fontFamily=Helvetica;fontSize=12;fontColor=default;labelBackgroundColor=default;endArrow=none;endFill=0;exitX=0.555;exitY=0.971;exitDx=0;exitDy=0;exitPerimeter=0;" parent="1" source="WClAUrq9EjlUU-zj0WXr-70" target="WClAUrq9EjlUU-zj0WXr-137" edge="1">
          <mxGeometry relative="1" as="geometry">
            <mxPoint x="2064.5" y="1950" as="sourcePoint" />
            <Array as="points" />
          </mxGeometry>
        </mxCell>
        <mxCell id="WClAUrq9EjlUU-zj0WXr-135" value="" style="edgeStyle=none;shape=connector;rounded=0;orthogonalLoop=1;jettySize=auto;html=1;strokeColor=default;align=center;verticalAlign=middle;fontFamily=Helvetica;fontSize=12;fontColor=default;labelBackgroundColor=default;endArrow=none;endFill=0;exitX=0.25;exitY=1;exitDx=0;exitDy=0;entryX=1;entryY=0.5;entryDx=0;entryDy=0;" parent="1" source="WClAUrq9EjlUU-zj0WXr-70" target="WClAUrq9EjlUU-zj0WXr-138" edge="1">
          <mxGeometry relative="1" as="geometry">
            <mxPoint x="2094.5" y="1950" as="sourcePoint" />
          </mxGeometry>
        </mxCell>
        <mxCell id="WClAUrq9EjlUU-zj0WXr-136" value="" style="edgeStyle=none;shape=connector;rounded=0;orthogonalLoop=1;jettySize=auto;html=1;strokeColor=default;align=center;verticalAlign=middle;fontFamily=Helvetica;fontSize=12;fontColor=default;labelBackgroundColor=default;endArrow=none;endFill=0;exitX=0.412;exitY=0.951;exitDx=0;exitDy=0;entryX=0;entryY=0;entryDx=0;entryDy=0;exitPerimeter=0;" parent="1" source="WClAUrq9EjlUU-zj0WXr-70" target="WClAUrq9EjlUU-zj0WXr-139" edge="1">
          <mxGeometry relative="1" as="geometry">
            <mxPoint x="2140.5" y="1949" as="sourcePoint" />
          </mxGeometry>
        </mxCell>
        <mxCell id="WClAUrq9EjlUU-zj0WXr-137" value="brand" style="ellipse;whiteSpace=wrap;html=1;rounded=0;" parent="1" vertex="1">
          <mxGeometry x="1500" y="1790.0000000000002" width="95" height="40" as="geometry" />
        </mxCell>
        <mxCell id="WClAUrq9EjlUU-zj0WXr-138" value="model" style="ellipse;whiteSpace=wrap;html=1;rounded=0;" parent="1" vertex="1">
          <mxGeometry x="1346.25" y="1710.0000000000002" width="100" height="40" as="geometry" />
        </mxCell>
        <mxCell id="WClAUrq9EjlUU-zj0WXr-139" value="memeroy speed range" style="ellipse;whiteSpace=wrap;html=1;rounded=0;" parent="1" vertex="1">
          <mxGeometry x="1326.25" y="1800.0000000000002" width="165" height="40" as="geometry" />
        </mxCell>
        <mxCell id="WClAUrq9EjlUU-zj0WXr-140" value="number of memory slot" style="ellipse;whiteSpace=wrap;html=1;rounded=0;" parent="1" vertex="1">
          <mxGeometry x="1568.71" y="1890" width="180" height="40" as="geometry" />
        </mxCell>
        <mxCell id="WClAUrq9EjlUU-zj0WXr-141" value="" style="edgeStyle=none;shape=connector;rounded=0;orthogonalLoop=1;jettySize=auto;html=1;strokeColor=default;align=center;verticalAlign=middle;fontFamily=Helvetica;fontSize=12;fontColor=default;labelBackgroundColor=default;endArrow=none;endFill=0;exitX=0.5;exitY=1;exitDx=0;exitDy=0;" parent="1" source="WClAUrq9EjlUU-zj0WXr-70" target="WClAUrq9EjlUU-zj0WXr-142" edge="1">
          <mxGeometry relative="1" as="geometry">
            <mxPoint x="2034.5" y="1920" as="sourcePoint" />
          </mxGeometry>
        </mxCell>
        <mxCell id="WClAUrq9EjlUU-zj0WXr-142" value="dimensions" style="ellipse;whiteSpace=wrap;html=1;rounded=0;" parent="1" vertex="1">
          <mxGeometry x="1447.5" y="1740.0000000000002" width="105" height="40" as="geometry" />
        </mxCell>
        <mxCell id="WClAUrq9EjlUU-zj0WXr-143" value="wattage" style="ellipse;whiteSpace=wrap;html=1;rounded=0;" parent="1" vertex="1">
          <mxGeometry x="1518.75" y="1840.0000000000002" width="130" height="40" as="geometry" />
        </mxCell>
        <mxCell id="WClAUrq9EjlUU-zj0WXr-144" value="" style="edgeStyle=none;shape=connector;rounded=0;orthogonalLoop=1;jettySize=auto;html=1;strokeColor=default;align=center;verticalAlign=middle;fontFamily=Helvetica;fontSize=12;fontColor=default;labelBackgroundColor=default;endArrow=none;endFill=0;exitX=1;exitY=0;exitDx=0;exitDy=0;" parent="1" source="WClAUrq9EjlUU-zj0WXr-70" target="WClAUrq9EjlUU-zj0WXr-145" edge="1">
          <mxGeometry relative="1" as="geometry">
            <mxPoint x="2154.5" y="1920" as="sourcePoint" />
          </mxGeometry>
        </mxCell>
        <mxCell id="WClAUrq9EjlUU-zj0WXr-145" value="chipset" style="ellipse;whiteSpace=wrap;html=1;rounded=0;" parent="1" vertex="1">
          <mxGeometry x="1401.25" y="1650" width="105" height="40" as="geometry" />
        </mxCell>
        <mxCell id="WClAUrq9EjlUU-zj0WXr-295" style="edgeStyle=none;shape=connector;rounded=0;orthogonalLoop=1;jettySize=auto;html=1;strokeColor=default;align=center;verticalAlign=middle;fontFamily=Helvetica;fontSize=12;fontColor=default;labelBackgroundColor=default;endArrow=none;endFill=0;entryX=0.648;entryY=0.236;entryDx=0;entryDy=0;entryPerimeter=0;" parent="1" source="WClAUrq9EjlUU-zj0WXr-76" target="WClAUrq9EjlUU-zj0WXr-296" edge="1">
          <mxGeometry relative="1" as="geometry">
            <mxPoint x="3120" y="1740" as="targetPoint" />
          </mxGeometry>
        </mxCell>
        <mxCell id="LdFAEq9sarEnEC0SSBv0-17" value="N" style="edgeLabel;html=1;align=center;verticalAlign=middle;resizable=0;points=[];" parent="WClAUrq9EjlUU-zj0WXr-295" vertex="1" connectable="0">
          <mxGeometry x="-0.5201" y="2" relative="1" as="geometry">
            <mxPoint as="offset" />
          </mxGeometry>
        </mxCell>
        <mxCell id="WClAUrq9EjlUU-zj0WXr-76" value="&lt;font face=&quot;Georgia&quot;&gt;GPU&lt;/font&gt;" style="whiteSpace=wrap;html=1;fillColor=#f5f5f5;strokeColor=#666666;fontColor=#333333;rounded=0;" parent="1" vertex="1">
          <mxGeometry x="2250" y="1495" width="120" height="60" as="geometry" />
        </mxCell>
        <mxCell id="WClAUrq9EjlUU-zj0WXr-148" value="" style="edgeStyle=none;shape=connector;rounded=0;orthogonalLoop=1;jettySize=auto;html=1;strokeColor=default;align=center;verticalAlign=middle;fontFamily=Helvetica;fontSize=12;fontColor=default;labelBackgroundColor=default;endArrow=none;endFill=0;exitX=1;exitY=0.5;exitDx=0;exitDy=0;" parent="1" source="WClAUrq9EjlUU-zj0WXr-82" target="WClAUrq9EjlUU-zj0WXr-156" edge="1">
          <mxGeometry relative="1" as="geometry">
            <mxPoint x="1413.75" y="1265" as="sourcePoint" />
          </mxGeometry>
        </mxCell>
        <mxCell id="WClAUrq9EjlUU-zj0WXr-149" value="" style="edgeStyle=none;shape=connector;rounded=0;orthogonalLoop=1;jettySize=auto;html=1;strokeColor=default;align=center;verticalAlign=middle;fontFamily=Helvetica;fontSize=12;fontColor=default;labelBackgroundColor=default;endArrow=none;endFill=0;exitX=0.901;exitY=0.983;exitDx=0;exitDy=0;exitPerimeter=0;entryX=1;entryY=0;entryDx=0;entryDy=0;" parent="1" source="WClAUrq9EjlUU-zj0WXr-82" target="WClAUrq9EjlUU-zj0WXr-159" edge="1">
          <mxGeometry relative="1" as="geometry">
            <mxPoint x="1413.75" y="1310" as="sourcePoint" />
          </mxGeometry>
        </mxCell>
        <mxCell id="WClAUrq9EjlUU-zj0WXr-150" value="" style="edgeStyle=none;shape=connector;rounded=0;orthogonalLoop=1;jettySize=auto;html=1;strokeColor=default;align=center;verticalAlign=middle;fontFamily=Helvetica;fontSize=12;fontColor=default;labelBackgroundColor=default;endArrow=none;endFill=0;exitX=0.852;exitY=1.008;exitDx=0;exitDy=0;exitPerimeter=0;" parent="1" source="WClAUrq9EjlUU-zj0WXr-82" target="WClAUrq9EjlUU-zj0WXr-153" edge="1">
          <mxGeometry relative="1" as="geometry">
            <mxPoint x="1370.75" y="1310" as="sourcePoint" />
            <Array as="points" />
          </mxGeometry>
        </mxCell>
        <mxCell id="WClAUrq9EjlUU-zj0WXr-151" value="" style="edgeStyle=none;shape=connector;rounded=0;orthogonalLoop=1;jettySize=auto;html=1;strokeColor=default;align=center;verticalAlign=middle;fontFamily=Helvetica;fontSize=12;fontColor=default;labelBackgroundColor=default;endArrow=none;endFill=0;exitX=1;exitY=1;exitDx=0;exitDy=0;" parent="1" source="WClAUrq9EjlUU-zj0WXr-82" target="WClAUrq9EjlUU-zj0WXr-154" edge="1">
          <mxGeometry relative="1" as="geometry">
            <mxPoint x="1413.75" y="1295" as="sourcePoint" />
          </mxGeometry>
        </mxCell>
        <mxCell id="WClAUrq9EjlUU-zj0WXr-152" value="" style="edgeStyle=none;shape=connector;rounded=0;orthogonalLoop=1;jettySize=auto;html=1;strokeColor=default;align=center;verticalAlign=middle;fontFamily=Helvetica;fontSize=12;fontColor=default;labelBackgroundColor=default;endArrow=none;endFill=0;exitX=1;exitY=0.75;exitDx=0;exitDy=0;entryX=0;entryY=0;entryDx=0;entryDy=0;" parent="1" source="WClAUrq9EjlUU-zj0WXr-82" target="WClAUrq9EjlUU-zj0WXr-155" edge="1">
          <mxGeometry relative="1" as="geometry">
            <mxPoint x="1413.75" y="1280" as="sourcePoint" />
          </mxGeometry>
        </mxCell>
        <mxCell id="WClAUrq9EjlUU-zj0WXr-154" value="model" style="ellipse;whiteSpace=wrap;html=1;rounded=0;" parent="1" vertex="1">
          <mxGeometry x="1167.5" y="1250" width="100" height="40" as="geometry" />
        </mxCell>
        <mxCell id="WClAUrq9EjlUU-zj0WXr-155" value="number of core" style="ellipse;whiteSpace=wrap;html=1;rounded=0;" parent="1" vertex="1">
          <mxGeometry x="1237.96" y="1572" width="128" height="40" as="geometry" />
        </mxCell>
        <mxCell id="WClAUrq9EjlUU-zj0WXr-156" value="number of thread" style="ellipse;whiteSpace=wrap;html=1;rounded=0;" parent="1" vertex="1">
          <mxGeometry x="1307" y="1524" width="145" height="40" as="geometry" />
        </mxCell>
        <mxCell id="WClAUrq9EjlUU-zj0WXr-157" value="" style="edgeStyle=none;shape=connector;rounded=0;orthogonalLoop=1;jettySize=auto;html=1;strokeColor=default;align=center;verticalAlign=middle;fontFamily=Helvetica;fontSize=12;fontColor=default;labelBackgroundColor=default;endArrow=none;endFill=0;exitX=0.25;exitY=1;exitDx=0;exitDy=0;" parent="1" source="WClAUrq9EjlUU-zj0WXr-82" target="WClAUrq9EjlUU-zj0WXr-158" edge="1">
          <mxGeometry relative="1" as="geometry">
            <mxPoint x="1353.75" y="1310" as="sourcePoint" />
          </mxGeometry>
        </mxCell>
        <mxCell id="WClAUrq9EjlUU-zj0WXr-158" value="generation" style="ellipse;whiteSpace=wrap;html=1;rounded=0;" parent="1" vertex="1">
          <mxGeometry x="1205" y="1448.44" width="105" height="40" as="geometry" />
        </mxCell>
        <mxCell id="WClAUrq9EjlUU-zj0WXr-159" value="microarchitetecture" style="ellipse;whiteSpace=wrap;html=1;rounded=0;" parent="1" vertex="1">
          <mxGeometry x="1120" y="1528.44" width="130" height="40" as="geometry" />
        </mxCell>
        <mxCell id="WClAUrq9EjlUU-zj0WXr-160" value="" style="edgeStyle=none;shape=connector;rounded=0;orthogonalLoop=1;jettySize=auto;html=1;strokeColor=default;align=center;verticalAlign=middle;fontFamily=Helvetica;fontSize=12;fontColor=default;labelBackgroundColor=default;endArrow=none;endFill=0;exitX=1;exitY=0.25;exitDx=0;exitDy=0;" parent="1" source="WClAUrq9EjlUU-zj0WXr-82" target="WClAUrq9EjlUU-zj0WXr-161" edge="1">
          <mxGeometry relative="1" as="geometry">
            <mxPoint x="1413.75" y="1250" as="sourcePoint" />
          </mxGeometry>
        </mxCell>
        <mxCell id="WClAUrq9EjlUU-zj0WXr-161" value="base frequency" style="ellipse;whiteSpace=wrap;html=1;rounded=0;" parent="1" vertex="1">
          <mxGeometry x="985" y="1440" width="105" height="40" as="geometry" />
        </mxCell>
        <mxCell id="WClAUrq9EjlUU-zj0WXr-162" value="" style="edgeStyle=none;shape=connector;rounded=0;orthogonalLoop=1;jettySize=auto;html=1;strokeColor=default;align=center;verticalAlign=middle;fontFamily=Helvetica;fontSize=12;fontColor=default;labelBackgroundColor=default;endArrow=none;endFill=0;" parent="1" source="WClAUrq9EjlUU-zj0WXr-82" target="WClAUrq9EjlUU-zj0WXr-163" edge="1">
          <mxGeometry relative="1" as="geometry">
            <mxPoint x="1063.75" y="1430" as="sourcePoint" />
          </mxGeometry>
        </mxCell>
        <mxCell id="WClAUrq9EjlUU-zj0WXr-163" value="boost frequency" style="ellipse;whiteSpace=wrap;html=1;rounded=0;" parent="1" vertex="1">
          <mxGeometry x="1080" y="1278.44" width="105" height="40" as="geometry" />
        </mxCell>
        <mxCell id="WClAUrq9EjlUU-zj0WXr-166" value="" style="edgeStyle=none;shape=connector;rounded=0;orthogonalLoop=1;jettySize=auto;html=1;strokeColor=default;align=center;verticalAlign=middle;fontFamily=Helvetica;fontSize=12;fontColor=default;labelBackgroundColor=default;endArrow=none;endFill=0;exitX=0.065;exitY=0.942;exitDx=0;exitDy=0;exitPerimeter=0;" parent="1" source="WClAUrq9EjlUU-zj0WXr-82" target="WClAUrq9EjlUU-zj0WXr-167" edge="1">
          <mxGeometry relative="1" as="geometry">
            <mxPoint x="1330" y="1380" as="sourcePoint" />
          </mxGeometry>
        </mxCell>
        <mxCell id="WClAUrq9EjlUU-zj0WXr-167" value="maximum addressable" style="ellipse;whiteSpace=wrap;html=1;rounded=0;" parent="1" vertex="1">
          <mxGeometry x="1062.5" y="1468.44" width="135" height="40" as="geometry" />
        </mxCell>
        <mxCell id="WClAUrq9EjlUU-zj0WXr-168" value="" style="edgeStyle=none;shape=connector;rounded=0;orthogonalLoop=1;jettySize=auto;html=1;strokeColor=default;align=center;verticalAlign=middle;fontFamily=Helvetica;fontSize=12;fontColor=default;labelBackgroundColor=default;endArrow=none;endFill=0;exitX=0;exitY=0.75;exitDx=0;exitDy=0;" parent="1" source="WClAUrq9EjlUU-zj0WXr-82" target="WClAUrq9EjlUU-zj0WXr-169" edge="1">
          <mxGeometry relative="1" as="geometry">
            <mxPoint x="851.25" y="1462.5" as="sourcePoint" />
          </mxGeometry>
        </mxCell>
        <mxCell id="WClAUrq9EjlUU-zj0WXr-169" value="memory limit" style="ellipse;whiteSpace=wrap;html=1;rounded=0;" parent="1" vertex="1">
          <mxGeometry x="1062.5" y="1387.4999999999998" width="105" height="40" as="geometry" />
        </mxCell>
        <mxCell id="WClAUrq9EjlUU-zj0WXr-170" value="" style="edgeStyle=none;shape=connector;rounded=0;orthogonalLoop=1;jettySize=auto;html=1;strokeColor=default;align=center;verticalAlign=middle;fontFamily=Helvetica;fontSize=12;fontColor=default;labelBackgroundColor=default;endArrow=none;endFill=0;exitX=0;exitY=0.5;exitDx=0;exitDy=0;" parent="1" source="WClAUrq9EjlUU-zj0WXr-82" target="WClAUrq9EjlUU-zj0WXr-171" edge="1">
          <mxGeometry relative="1" as="geometry">
            <mxPoint x="833.75" y="1305" as="sourcePoint" />
          </mxGeometry>
        </mxCell>
        <mxCell id="WClAUrq9EjlUU-zj0WXr-171" value="wattage" style="ellipse;whiteSpace=wrap;html=1;rounded=0;" parent="1" vertex="1">
          <mxGeometry x="1062.5" y="1334.64" width="105" height="40" as="geometry" />
        </mxCell>
        <mxCell id="WClAUrq9EjlUU-zj0WXr-178" value="" style="edgeStyle=none;shape=connector;rounded=0;orthogonalLoop=1;jettySize=auto;html=1;strokeColor=default;align=center;verticalAlign=middle;fontFamily=Helvetica;fontSize=12;fontColor=default;labelBackgroundColor=default;endArrow=none;endFill=0;exitX=0.75;exitY=1;exitDx=0;exitDy=0;" parent="1" source="WClAUrq9EjlUU-zj0WXr-78" target="WClAUrq9EjlUU-zj0WXr-180" edge="1">
          <mxGeometry relative="1" as="geometry">
            <mxPoint x="2622" y="1600" as="sourcePoint" />
            <Array as="points" />
          </mxGeometry>
        </mxCell>
        <mxCell id="WClAUrq9EjlUU-zj0WXr-179" value="" style="edgeStyle=none;shape=connector;rounded=0;orthogonalLoop=1;jettySize=auto;html=1;strokeColor=default;align=center;verticalAlign=middle;fontFamily=Helvetica;fontSize=12;fontColor=default;labelBackgroundColor=default;endArrow=none;endFill=0;exitX=1;exitY=1;exitDx=0;exitDy=0;" parent="1" source="WClAUrq9EjlUU-zj0WXr-78" target="WClAUrq9EjlUU-zj0WXr-181" edge="1">
          <mxGeometry relative="1" as="geometry">
            <mxPoint x="2640" y="1600" as="sourcePoint" />
          </mxGeometry>
        </mxCell>
        <mxCell id="WClAUrq9EjlUU-zj0WXr-180" value="brand" style="ellipse;whiteSpace=wrap;html=1;rounded=0;" parent="1" vertex="1">
          <mxGeometry x="2667.5" y="1590" width="95" height="40" as="geometry" />
        </mxCell>
        <mxCell id="WClAUrq9EjlUU-zj0WXr-181" value="model" style="ellipse;whiteSpace=wrap;html=1;rounded=0;" parent="1" vertex="1">
          <mxGeometry x="2750" y="1620" width="100" height="40" as="geometry" />
        </mxCell>
        <mxCell id="WClAUrq9EjlUU-zj0WXr-182" value="" style="edgeStyle=none;shape=connector;rounded=0;orthogonalLoop=1;jettySize=auto;html=1;strokeColor=default;align=center;verticalAlign=middle;fontFamily=Helvetica;fontSize=12;fontColor=default;labelBackgroundColor=default;endArrow=none;endFill=0;exitX=0.75;exitY=1;exitDx=0;exitDy=0;" parent="1" source="WClAUrq9EjlUU-zj0WXr-78" target="WClAUrq9EjlUU-zj0WXr-183" edge="1">
          <mxGeometry relative="1" as="geometry">
            <mxPoint x="2520" y="1570" as="sourcePoint" />
          </mxGeometry>
        </mxCell>
        <mxCell id="WClAUrq9EjlUU-zj0WXr-183" value="dimensions" style="ellipse;whiteSpace=wrap;html=1;rounded=0;" parent="1" vertex="1">
          <mxGeometry x="2630" y="1540" width="105" height="40" as="geometry" />
        </mxCell>
        <mxCell id="WClAUrq9EjlUU-zj0WXr-186" value="" style="edgeStyle=none;shape=connector;rounded=0;orthogonalLoop=1;jettySize=auto;html=1;strokeColor=default;align=center;verticalAlign=middle;fontFamily=Helvetica;fontSize=12;fontColor=default;labelBackgroundColor=default;endArrow=none;endFill=0;exitX=1;exitY=0.75;exitDx=0;exitDy=0;entryX=0.331;entryY=0.142;entryDx=0;entryDy=0;entryPerimeter=0;" parent="1" source="WClAUrq9EjlUU-zj0WXr-78" target="WClAUrq9EjlUU-zj0WXr-187" edge="1">
          <mxGeometry relative="1" as="geometry">
            <mxPoint x="2760" y="1487.5" as="sourcePoint" />
          </mxGeometry>
        </mxCell>
        <mxCell id="WClAUrq9EjlUU-zj0WXr-187" value="suppoerted wattage" style="ellipse;whiteSpace=wrap;html=1;rounded=0;" parent="1" vertex="1">
          <mxGeometry x="2807.5" y="1555" width="155" height="40" as="geometry" />
        </mxCell>
        <mxCell id="WClAUrq9EjlUU-zj0WXr-188" value="" style="edgeStyle=none;shape=connector;rounded=0;orthogonalLoop=1;jettySize=auto;html=1;strokeColor=default;align=center;verticalAlign=middle;fontFamily=Helvetica;fontSize=12;fontColor=default;labelBackgroundColor=default;endArrow=none;endFill=0;exitX=0;exitY=1;exitDx=0;exitDy=0;" parent="1" source="WClAUrq9EjlUU-zj0WXr-73" target="WClAUrq9EjlUU-zj0WXr-196" edge="1">
          <mxGeometry relative="1" as="geometry">
            <mxPoint x="1107.46" y="996.2" as="sourcePoint" />
          </mxGeometry>
        </mxCell>
        <mxCell id="WClAUrq9EjlUU-zj0WXr-189" value="" style="edgeStyle=none;shape=connector;rounded=0;orthogonalLoop=1;jettySize=auto;html=1;strokeColor=default;align=center;verticalAlign=middle;fontFamily=Helvetica;fontSize=12;fontColor=default;labelBackgroundColor=default;endArrow=none;endFill=0;exitX=0.338;exitY=1.015;exitDx=0;exitDy=0;exitPerimeter=0;" parent="1" source="WClAUrq9EjlUU-zj0WXr-73" target="WClAUrq9EjlUU-zj0WXr-199" edge="1">
          <mxGeometry relative="1" as="geometry">
            <mxPoint x="1095.46" y="1025.2" as="sourcePoint" />
          </mxGeometry>
        </mxCell>
        <mxCell id="WClAUrq9EjlUU-zj0WXr-190" value="" style="edgeStyle=none;shape=connector;rounded=0;orthogonalLoop=1;jettySize=auto;html=1;strokeColor=default;align=center;verticalAlign=middle;fontFamily=Helvetica;fontSize=12;fontColor=default;labelBackgroundColor=default;endArrow=none;endFill=0;exitX=0.591;exitY=1.001;exitDx=0;exitDy=0;exitPerimeter=0;" parent="1" source="WClAUrq9EjlUU-zj0WXr-73" target="WClAUrq9EjlUU-zj0WXr-193" edge="1">
          <mxGeometry relative="1" as="geometry">
            <mxPoint x="1089.46" y="1026.2" as="sourcePoint" />
            <Array as="points" />
          </mxGeometry>
        </mxCell>
        <mxCell id="WClAUrq9EjlUU-zj0WXr-191" value="" style="edgeStyle=none;shape=connector;rounded=0;orthogonalLoop=1;jettySize=auto;html=1;strokeColor=default;align=center;verticalAlign=middle;fontFamily=Helvetica;fontSize=12;fontColor=default;labelBackgroundColor=default;endArrow=none;endFill=0;exitX=0.5;exitY=1;exitDx=0;exitDy=0;" parent="1" source="WClAUrq9EjlUU-zj0WXr-73" target="WClAUrq9EjlUU-zj0WXr-194" edge="1">
          <mxGeometry relative="1" as="geometry">
            <mxPoint x="1107.46" y="1026.2" as="sourcePoint" />
          </mxGeometry>
        </mxCell>
        <mxCell id="WClAUrq9EjlUU-zj0WXr-192" value="" style="edgeStyle=none;shape=connector;rounded=0;orthogonalLoop=1;jettySize=auto;html=1;strokeColor=default;align=center;verticalAlign=middle;fontFamily=Helvetica;fontSize=12;fontColor=default;labelBackgroundColor=default;endArrow=none;endFill=0;exitX=0.177;exitY=1.015;exitDx=0;exitDy=0;entryX=0.765;entryY=0.055;entryDx=0;entryDy=0;exitPerimeter=0;entryPerimeter=0;" parent="1" source="WClAUrq9EjlUU-zj0WXr-73" target="WClAUrq9EjlUU-zj0WXr-195" edge="1">
          <mxGeometry relative="1" as="geometry">
            <mxPoint x="1107.46" y="1011.2" as="sourcePoint" />
          </mxGeometry>
        </mxCell>
        <mxCell id="WClAUrq9EjlUU-zj0WXr-193" value="brand" style="ellipse;whiteSpace=wrap;html=1;rounded=0;" parent="1" vertex="1">
          <mxGeometry x="1787.46" y="942.5" width="95" height="40" as="geometry" />
        </mxCell>
        <mxCell id="WClAUrq9EjlUU-zj0WXr-194" value="model" style="ellipse;whiteSpace=wrap;html=1;rounded=0;" parent="1" vertex="1">
          <mxGeometry x="1684.96" y="967.5" width="100" height="40" as="geometry" />
        </mxCell>
        <mxCell id="WClAUrq9EjlUU-zj0WXr-195" value="fan size" style="ellipse;whiteSpace=wrap;html=1;rounded=0;" parent="1" vertex="1">
          <mxGeometry x="1523.71" y="967.5" width="128" height="40" as="geometry" />
        </mxCell>
        <mxCell id="WClAUrq9EjlUU-zj0WXr-196" value="max routational speed" style="ellipse;whiteSpace=wrap;html=1;rounded=0;" parent="1" vertex="1">
          <mxGeometry x="1568.71" y="1117.5" width="145" height="40" as="geometry" />
        </mxCell>
        <mxCell id="WClAUrq9EjlUU-zj0WXr-197" value="" style="edgeStyle=none;shape=connector;rounded=0;orthogonalLoop=1;jettySize=auto;html=1;strokeColor=default;align=center;verticalAlign=middle;fontFamily=Helvetica;fontSize=12;fontColor=default;labelBackgroundColor=default;endArrow=none;endFill=0;exitX=0.022;exitY=0.383;exitDx=0;exitDy=0;exitPerimeter=0;" parent="1" source="WClAUrq9EjlUU-zj0WXr-73" target="WClAUrq9EjlUU-zj0WXr-198" edge="1">
          <mxGeometry relative="1" as="geometry">
            <mxPoint x="1077.46" y="1026.2" as="sourcePoint" />
          </mxGeometry>
        </mxCell>
        <mxCell id="WClAUrq9EjlUU-zj0WXr-198" value="dimensions" style="ellipse;whiteSpace=wrap;html=1;rounded=0;" parent="1" vertex="1">
          <mxGeometry x="1824.96" y="1087.5" width="105" height="40" as="geometry" />
        </mxCell>
        <mxCell id="WClAUrq9EjlUU-zj0WXr-199" value="cooling method" style="ellipse;whiteSpace=wrap;html=1;rounded=0;" parent="1" vertex="1">
          <mxGeometry x="1609.96" y="915" width="130" height="40" as="geometry" />
        </mxCell>
        <mxCell id="WClAUrq9EjlUU-zj0WXr-200" value="" style="edgeStyle=none;shape=connector;rounded=0;orthogonalLoop=1;jettySize=auto;html=1;strokeColor=default;align=center;verticalAlign=middle;fontFamily=Helvetica;fontSize=12;fontColor=default;labelBackgroundColor=default;endArrow=none;endFill=0;exitX=0;exitY=0.75;exitDx=0;exitDy=0;" parent="1" source="WClAUrq9EjlUU-zj0WXr-73" target="WClAUrq9EjlUU-zj0WXr-201" edge="1">
          <mxGeometry relative="1" as="geometry">
            <mxPoint x="1107.46" y="981.2" as="sourcePoint" />
          </mxGeometry>
        </mxCell>
        <mxCell id="WClAUrq9EjlUU-zj0WXr-201" value="wattage" style="ellipse;whiteSpace=wrap;html=1;rounded=0;" parent="1" vertex="1">
          <mxGeometry x="1720.21" y="1107.5" width="105" height="40" as="geometry" />
        </mxCell>
        <mxCell id="WClAUrq9EjlUU-zj0WXr-73" value="&lt;font face=&quot;Georgia&quot;&gt;Cooler&lt;/font&gt;" style="whiteSpace=wrap;html=1;fillColor=#f5f5f5;strokeColor=#666666;fontColor=#333333;rounded=0;" parent="1" vertex="1">
          <mxGeometry x="1651.71" y="1027.5" width="120" height="60" as="geometry" />
        </mxCell>
        <mxCell id="WClAUrq9EjlUU-zj0WXr-208" value="capacity" style="ellipse;whiteSpace=wrap;html=1;" parent="1" vertex="1">
          <mxGeometry x="2155" y="1300" width="90" height="50" as="geometry" />
        </mxCell>
        <mxCell id="WClAUrq9EjlUU-zj0WXr-209" style="edgeStyle=none;shape=connector;rounded=0;orthogonalLoop=1;jettySize=auto;html=1;exitX=1;exitY=1;exitDx=0;exitDy=0;entryX=0.388;entryY=1.016;entryDx=0;entryDy=0;strokeColor=default;align=center;verticalAlign=middle;fontFamily=Helvetica;fontSize=11;fontColor=default;labelBackgroundColor=default;endArrow=none;endFill=0;entryPerimeter=0;" parent="1" source="WClAUrq9EjlUU-zj0WXr-210" target="WClAUrq9EjlUU-zj0WXr-69" edge="1">
          <mxGeometry relative="1" as="geometry">
            <mxPoint x="2067.5" y="1818.44" as="targetPoint" />
          </mxGeometry>
        </mxCell>
        <mxCell id="WClAUrq9EjlUU-zj0WXr-210" value="wattag&lt;span style=&quot;color: rgba(0, 0, 0, 0); font-family: monospace; font-size: 0px; text-align: start; text-wrap-mode: nowrap;&quot;&gt;%3CmxGraphModel%3E%3Croot%3E%3CmxCell%20id%3D%220%22%2F%3E%3CmxCell%20id%3D%221%22%20parent%3D%220%22%2F%3E%3CmxCell%20id%3D%222%22%20value%3D%22rotational%20speed%22%20style%3D%22ellipse%3BwhiteSpace%3Dwrap%3Bhtml%3D1%3B%22%20vertex%3D%221%22%20parent%3D%221%22%3E%3CmxGeometry%20x%3D%22990%22%20y%3D%22570%22%20width%3D%2290%22%20height%3D%2250%22%20as%3D%22geometry%22%2F%3E%3C%2FmxCell%3E%3C%2Froot%3E%3C%2FmxGraphModel%3E&lt;/span&gt;e" style="ellipse;whiteSpace=wrap;html=1;" parent="1" vertex="1">
          <mxGeometry x="2030" y="1404.64" width="90" height="50" as="geometry" />
        </mxCell>
        <mxCell id="WClAUrq9EjlUU-zj0WXr-212" style="edgeStyle=none;shape=connector;rounded=0;orthogonalLoop=1;jettySize=auto;html=1;exitX=0;exitY=1;exitDx=0;exitDy=0;entryX=0.836;entryY=0.984;entryDx=0;entryDy=0;entryPerimeter=0;strokeColor=default;align=center;verticalAlign=middle;fontFamily=Helvetica;fontSize=11;fontColor=default;labelBackgroundColor=default;endArrow=none;endFill=0;" parent="1" source="WClAUrq9EjlUU-zj0WXr-206" target="WClAUrq9EjlUU-zj0WXr-69" edge="1">
          <mxGeometry relative="1" as="geometry">
            <mxPoint x="2110.5" y="1811.44" as="targetPoint" />
          </mxGeometry>
        </mxCell>
        <mxCell id="WClAUrq9EjlUU-zj0WXr-213" style="edgeStyle=none;shape=connector;rounded=0;orthogonalLoop=1;jettySize=auto;html=1;entryX=1;entryY=1;entryDx=0;entryDy=0;strokeColor=default;align=center;verticalAlign=middle;fontFamily=Helvetica;fontSize=11;fontColor=default;labelBackgroundColor=default;endArrow=none;endFill=0;" parent="1" source="WClAUrq9EjlUU-zj0WXr-208" target="WClAUrq9EjlUU-zj0WXr-69" edge="1">
          <mxGeometry relative="1" as="geometry">
            <mxPoint x="2147.5" y="1808.44" as="targetPoint" />
          </mxGeometry>
        </mxCell>
        <mxCell id="WClAUrq9EjlUU-zj0WXr-206" value="bran&lt;span style=&quot;color: rgba(0, 0, 0, 0); font-family: monospace; font-size: 0px; text-align: start; text-wrap-mode: nowrap;&quot;&gt;%3CmxGraphModel%3E%3Croot%3E%3CmxCell%20id%3D%220%22%2F%3E%3CmxCell%20id%3D%221%22%20parent%3D%220%22%2F%3E%3CmxCell%20id%3D%222%22%20value%3D%22dimensions%26lt%3Bspan%20style%3D%26quot%3Bcolor%3A%20rgba(0%2C%200%2C%200%2C%200)%3B%20font-family%3A%20monospace%3B%20font-size%3A%200px%3B%20text-align%3A%20start%3B%20text-wrap-mode%3A%20nowrap%3B%26quot%3B%26gt%3B%253CmxGraphModel%253E%253Croot%253E%253CmxCell%2520id%253D%25220%2522%252F%253E%253CmxCell%2520id%253D%25221%2522%2520parent%253D%25220%2522%252F%253E%253CmxCell%2520id%253D%25222%2522%2520value%253D%2522chipset%2522%2520style%253D%2522ellipse%253BwhiteSpace%253Dwrap%253Bhtml%253D1%253B%2522%2520vertex%253D%25221%2522%2520parent%253D%25221%2522%253E%253CmxGeometry%2520x%253D%25222750%2522%2520y%253D%2522395%2522%2520width%253D%252290%2522%2520height%253D%252250%2522%2520as%253D%2522geometry%2522%252F%253E%253C%252FmxCell%253E%253C%252Froot%253E%253C%252FmxGraphModel%253E%26lt%3B%2Fspan%26gt%3B%22%20style%3D%22ellipse%3BwhiteSpace%3Dwrap%3Bhtml%3D1%3B%22%20vertex%3D%221%22%20parent%3D%221%22%3E%3CmxGeometry%20x%3D%222640%22%20y%3D%22210%22%20width%3D%2290%22%20height%3D%2250%22%20as%3D%22geometry%22%2F%3E%3C%2FmxCell%3E%3C%2Froot%3E%3C%2FmxGraphModel%3E&lt;/span&gt;d" style="ellipse;whiteSpace=wrap;html=1;" parent="1" vertex="1">
          <mxGeometry x="2175" y="1364.64" width="90" height="50" as="geometry" />
        </mxCell>
        <mxCell id="WClAUrq9EjlUU-zj0WXr-211" style="edgeStyle=none;shape=connector;rounded=0;orthogonalLoop=1;jettySize=auto;html=1;exitX=0.5;exitY=1;exitDx=0;exitDy=0;entryX=0.622;entryY=0.952;entryDx=0;entryDy=0;entryPerimeter=0;strokeColor=default;align=center;verticalAlign=middle;fontFamily=Helvetica;fontSize=11;fontColor=default;labelBackgroundColor=default;endArrow=none;endFill=0;" parent="1" source="WClAUrq9EjlUU-zj0WXr-207" target="WClAUrq9EjlUU-zj0WXr-69" edge="1">
          <mxGeometry relative="1" as="geometry">
            <mxPoint x="2083.5" y="1805.44" as="targetPoint" />
          </mxGeometry>
        </mxCell>
        <mxCell id="WClAUrq9EjlUU-zj0WXr-207" value="model" style="ellipse;whiteSpace=wrap;html=1;" parent="1" vertex="1">
          <mxGeometry x="2130" y="1438.44" width="90" height="50" as="geometry" />
        </mxCell>
        <mxCell id="WClAUrq9EjlUU-zj0WXr-69" value="&lt;font face=&quot;Georgia&quot;&gt;SSD&lt;/font&gt;" style="whiteSpace=wrap;html=1;fillColor=#f5f5f5;strokeColor=#666666;fontColor=#333333;rounded=0;" parent="1" vertex="1">
          <mxGeometry x="2005" y="1290" width="120" height="60" as="geometry" />
        </mxCell>
        <mxCell id="WClAUrq9EjlUU-zj0WXr-227" style="edgeStyle=none;shape=connector;rounded=0;orthogonalLoop=1;jettySize=auto;html=1;exitX=0.5;exitY=1;exitDx=0;exitDy=0;strokeColor=default;align=center;verticalAlign=middle;fontFamily=Helvetica;fontSize=11;fontColor=default;labelBackgroundColor=default;endArrow=none;endFill=0;entryX=0;entryY=0.5;entryDx=0;entryDy=0;" parent="1" source="WClAUrq9EjlUU-zj0WXr-228" target="WClAUrq9EjlUU-zj0WXr-84" edge="1">
          <mxGeometry relative="1" as="geometry">
            <mxPoint x="1175" y="2283.44" as="targetPoint" />
          </mxGeometry>
        </mxCell>
        <mxCell id="WClAUrq9EjlUU-zj0WXr-228" value="model" style="ellipse;whiteSpace=wrap;html=1;" parent="1" vertex="1">
          <mxGeometry x="3032.5" y="1382.5" width="90" height="50" as="geometry" />
        </mxCell>
        <mxCell id="WClAUrq9EjlUU-zj0WXr-229" style="edgeStyle=none;shape=connector;rounded=0;orthogonalLoop=1;jettySize=auto;html=1;exitX=0;exitY=0.5;exitDx=0;exitDy=0;entryX=1;entryY=1;entryDx=0;entryDy=0;strokeColor=default;align=center;verticalAlign=middle;fontFamily=Helvetica;fontSize=11;fontColor=default;labelBackgroundColor=default;endArrow=none;endFill=0;" parent="1" source="WClAUrq9EjlUU-zj0WXr-230" target="WClAUrq9EjlUU-zj0WXr-84" edge="1">
          <mxGeometry relative="1" as="geometry">
            <mxPoint x="3125" y="1693.44" as="targetPoint" />
          </mxGeometry>
        </mxCell>
        <mxCell id="WClAUrq9EjlUU-zj0WXr-230" value="capacity" style="ellipse;whiteSpace=wrap;html=1;" parent="1" vertex="1">
          <mxGeometry x="3280" y="1364.64" width="90" height="50" as="geometry" />
        </mxCell>
        <mxCell id="WClAUrq9EjlUU-zj0WXr-231" style="edgeStyle=none;shape=connector;rounded=0;orthogonalLoop=1;jettySize=auto;html=1;exitX=0.5;exitY=0;exitDx=0;exitDy=0;entryX=0.75;entryY=1;entryDx=0;entryDy=0;strokeColor=default;align=center;verticalAlign=middle;fontFamily=Helvetica;fontSize=11;fontColor=default;labelBackgroundColor=default;endArrow=none;endFill=0;" parent="1" source="WClAUrq9EjlUU-zj0WXr-232" target="WClAUrq9EjlUU-zj0WXr-84" edge="1">
          <mxGeometry relative="1" as="geometry">
            <mxPoint x="3035" y="1693.44" as="targetPoint" />
          </mxGeometry>
        </mxCell>
        <mxCell id="WClAUrq9EjlUU-zj0WXr-232" value="rotational speed" style="ellipse;whiteSpace=wrap;html=1;" parent="1" vertex="1">
          <mxGeometry x="3230" y="1440" width="90" height="50" as="geometry" />
        </mxCell>
        <mxCell id="WClAUrq9EjlUU-zj0WXr-234" style="edgeStyle=none;shape=connector;rounded=0;orthogonalLoop=1;jettySize=auto;html=1;exitX=0;exitY=0.5;exitDx=0;exitDy=0;entryX=1;entryY=0.5;entryDx=0;entryDy=0;strokeColor=default;align=center;verticalAlign=middle;fontFamily=Helvetica;fontSize=11;fontColor=default;labelBackgroundColor=default;endArrow=none;endFill=0;" parent="1" source="WClAUrq9EjlUU-zj0WXr-235" target="WClAUrq9EjlUU-zj0WXr-84" edge="1">
          <mxGeometry relative="1" as="geometry">
            <mxPoint x="1205" y="2283.44" as="targetPoint" />
          </mxGeometry>
        </mxCell>
        <mxCell id="WClAUrq9EjlUU-zj0WXr-235" value="dimensions" style="ellipse;whiteSpace=wrap;html=1;" parent="1" vertex="1">
          <mxGeometry x="3290" y="1300" width="90" height="50" as="geometry" />
        </mxCell>
        <mxCell id="WClAUrq9EjlUU-zj0WXr-236" style="edgeStyle=none;shape=connector;rounded=0;orthogonalLoop=1;jettySize=auto;html=1;exitX=1;exitY=1;exitDx=0;exitDy=0;entryX=0.5;entryY=1;entryDx=0;entryDy=0;strokeColor=default;align=center;verticalAlign=middle;fontFamily=Helvetica;fontSize=11;fontColor=default;labelBackgroundColor=default;endArrow=none;endFill=0;" parent="1" source="WClAUrq9EjlUU-zj0WXr-233" target="WClAUrq9EjlUU-zj0WXr-84" edge="1">
          <mxGeometry relative="1" as="geometry">
            <mxPoint x="3054" y="1693.44" as="targetPoint" />
          </mxGeometry>
        </mxCell>
        <mxCell id="WClAUrq9EjlUU-zj0WXr-237" style="edgeStyle=none;shape=connector;rounded=0;orthogonalLoop=1;jettySize=auto;html=1;exitX=0;exitY=1;exitDx=0;exitDy=0;entryX=0;entryY=1;entryDx=0;entryDy=0;strokeColor=default;align=center;verticalAlign=middle;fontFamily=Helvetica;fontSize=11;fontColor=default;labelBackgroundColor=default;endArrow=none;endFill=0;" parent="1" source="WClAUrq9EjlUU-zj0WXr-226" target="WClAUrq9EjlUU-zj0WXr-84" edge="1">
          <mxGeometry relative="1" as="geometry">
            <mxPoint x="3084" y="1693.44" as="targetPoint" />
          </mxGeometry>
        </mxCell>
        <mxCell id="WClAUrq9EjlUU-zj0WXr-226" value="bran&lt;span style=&quot;color: rgba(0, 0, 0, 0); font-family: monospace; font-size: 0px; text-align: start; text-wrap-mode: nowrap;&quot;&gt;%3CmxGraphModel%3E%3Croot%3E%3CmxCell%20id%3D%220%22%2F%3E%3CmxCell%20id%3D%221%22%20parent%3D%220%22%2F%3E%3CmxCell%20id%3D%222%22%20value%3D%22dimensions%26lt%3Bspan%20style%3D%26quot%3Bcolor%3A%20rgba(0%2C%200%2C%200%2C%200)%3B%20font-family%3A%20monospace%3B%20font-size%3A%200px%3B%20text-align%3A%20start%3B%20text-wrap-mode%3A%20nowrap%3B%26quot%3B%26gt%3B%253CmxGraphModel%253E%253Croot%253E%253CmxCell%2520id%253D%25220%2522%252F%253E%253CmxCell%2520id%253D%25221%2522%2520parent%253D%25220%2522%252F%253E%253CmxCell%2520id%253D%25222%2522%2520value%253D%2522chipset%2522%2520style%253D%2522ellipse%253BwhiteSpace%253Dwrap%253Bhtml%253D1%253B%2522%2520vertex%253D%25221%2522%2520parent%253D%25221%2522%253E%253CmxGeometry%2520x%253D%25222750%2522%2520y%253D%2522395%2522%2520width%253D%252290%2522%2520height%253D%252250%2522%2520as%253D%2522geometry%2522%252F%253E%253C%252FmxCell%253E%253C%252Froot%253E%253C%252FmxGraphModel%253E%26lt%3B%2Fspan%26gt%3B%22%20style%3D%22ellipse%3BwhiteSpace%3Dwrap%3Bhtml%3D1%3B%22%20vertex%3D%221%22%20parent%3D%221%22%3E%3CmxGeometry%20x%3D%222640%22%20y%3D%22210%22%20width%3D%2290%22%20height%3D%2250%22%20as%3D%22geometry%22%2F%3E%3C%2FmxCell%3E%3C%2Froot%3E%3C%2FmxGraphModel%3E&lt;/span&gt;d" style="ellipse;whiteSpace=wrap;html=1;" parent="1" vertex="1">
          <mxGeometry x="3122.5" y="1334.64" width="90" height="50" as="geometry" />
        </mxCell>
        <mxCell id="WClAUrq9EjlUU-zj0WXr-233" value="wattag&lt;span style=&quot;color: rgba(0, 0, 0, 0); font-family: monospace; font-size: 0px; text-align: start; text-wrap-mode: nowrap;&quot;&gt;%3CmxGraphModel%3E%3Croot%3E%3CmxCell%20id%3D%220%22%2F%3E%3CmxCell%20id%3D%221%22%20parent%3D%220%22%2F%3E%3CmxCell%20id%3D%222%22%20value%3D%22rotational%20speed%22%20style%3D%22ellipse%3BwhiteSpace%3Dwrap%3Bhtml%3D1%3B%22%20vertex%3D%221%22%20parent%3D%221%22%3E%3CmxGeometry%20x%3D%22990%22%20y%3D%22570%22%20width%3D%2290%22%20height%3D%2250%22%20as%3D%22geometry%22%2F%3E%3C%2FmxCell%3E%3C%2Froot%3E%3C%2FmxGraphModel%3E&lt;/span&gt;e" style="ellipse;whiteSpace=wrap;html=1;" parent="1" vertex="1">
          <mxGeometry x="3150" y="1402.5" width="90" height="50" as="geometry" />
        </mxCell>
        <mxCell id="WClAUrq9EjlUU-zj0WXr-238" style="edgeStyle=none;shape=connector;rounded=0;orthogonalLoop=1;jettySize=auto;html=1;exitX=0.5;exitY=1;exitDx=0;exitDy=0;entryX=0;entryY=1;entryDx=0;entryDy=0;strokeColor=default;align=center;verticalAlign=middle;fontFamily=Helvetica;fontSize=11;fontColor=default;labelBackgroundColor=default;endArrow=none;endFill=0;" parent="1" source="WClAUrq9EjlUU-zj0WXr-239" target="WClAUrq9EjlUU-zj0WXr-80" edge="1">
          <mxGeometry relative="1" as="geometry">
            <mxPoint x="2842.5" y="1132.32" as="targetPoint" />
          </mxGeometry>
        </mxCell>
        <mxCell id="WClAUrq9EjlUU-zj0WXr-239" value="bran&lt;span style=&quot;color: rgba(0, 0, 0, 0); font-family: monospace; font-size: 0px; text-align: start; text-wrap-mode: nowrap;&quot;&gt;%3CmxGraphModel%3E%3Croot%3E%3CmxCell%20id%3D%220%22%2F%3E%3CmxCell%20id%3D%221%22%20parent%3D%220%22%2F%3E%3CmxCell%20id%3D%222%22%20value%3D%22dimensions%26lt%3Bspan%20style%3D%26quot%3Bcolor%3A%20rgba(0%2C%200%2C%200%2C%200)%3B%20font-family%3A%20monospace%3B%20font-size%3A%200px%3B%20text-align%3A%20start%3B%20text-wrap-mode%3A%20nowrap%3B%26quot%3B%26gt%3B%253CmxGraphModel%253E%253Croot%253E%253CmxCell%2520id%253D%25220%2522%252F%253E%253CmxCell%2520id%253D%25221%2522%2520parent%253D%25220%2522%252F%253E%253CmxCell%2520id%253D%25222%2522%2520value%253D%2522chipset%2522%2520style%253D%2522ellipse%253BwhiteSpace%253Dwrap%253Bhtml%253D1%253B%2522%2520vertex%253D%25221%2522%2520parent%253D%25221%2522%253E%253CmxGeometry%2520x%253D%25222750%2522%2520y%253D%2522395%2522%2520width%253D%252290%2522%2520height%253D%252250%2522%2520as%253D%2522geometry%2522%252F%253E%253C%252FmxCell%253E%253C%252Froot%253E%253C%252FmxGraphModel%253E%26lt%3B%2Fspan%26gt%3B%22%20style%3D%22ellipse%3BwhiteSpace%3Dwrap%3Bhtml%3D1%3B%22%20vertex%3D%221%22%20parent%3D%221%22%3E%3CmxGeometry%20x%3D%222640%22%20y%3D%22210%22%20width%3D%2290%22%20height%3D%2250%22%20as%3D%22geometry%22%2F%3E%3C%2FmxCell%3E%3C%2Froot%3E%3C%2FmxGraphModel%3E&lt;/span&gt;d" style="ellipse;whiteSpace=wrap;html=1;" parent="1" vertex="1">
          <mxGeometry x="3035" y="862.32" width="90" height="50" as="geometry" />
        </mxCell>
        <mxCell id="WClAUrq9EjlUU-zj0WXr-240" style="edgeStyle=none;shape=connector;rounded=0;orthogonalLoop=1;jettySize=auto;html=1;exitX=0;exitY=0.5;exitDx=0;exitDy=0;strokeColor=default;align=center;verticalAlign=middle;fontFamily=Helvetica;fontSize=11;fontColor=default;labelBackgroundColor=default;endArrow=none;endFill=0;entryX=0;entryY=0.75;entryDx=0;entryDy=0;" parent="1" source="WClAUrq9EjlUU-zj0WXr-241" target="WClAUrq9EjlUU-zj0WXr-80" edge="1">
          <mxGeometry relative="1" as="geometry">
            <mxPoint x="2812.5" y="1132.32" as="targetPoint" />
            <mxPoint x="3246.8198051533946" y="1147.4976695296639" as="sourcePoint" />
          </mxGeometry>
        </mxCell>
        <mxCell id="WClAUrq9EjlUU-zj0WXr-241" value="model" style="ellipse;whiteSpace=wrap;html=1;" parent="1" vertex="1">
          <mxGeometry x="3250" y="1130" width="90" height="50" as="geometry" />
        </mxCell>
        <mxCell id="WClAUrq9EjlUU-zj0WXr-244" style="edgeStyle=none;shape=connector;rounded=0;orthogonalLoop=1;jettySize=auto;html=1;exitX=0.5;exitY=0;exitDx=0;exitDy=0;entryX=0.75;entryY=1;entryDx=0;entryDy=0;strokeColor=default;align=center;verticalAlign=middle;fontFamily=Helvetica;fontSize=11;fontColor=default;labelBackgroundColor=default;endArrow=none;endFill=0;" parent="1" source="WClAUrq9EjlUU-zj0WXr-245" target="WClAUrq9EjlUU-zj0WXr-80" edge="1">
          <mxGeometry relative="1" as="geometry">
            <mxPoint x="2902.5" y="1162.32" as="targetPoint" />
          </mxGeometry>
        </mxCell>
        <mxCell id="WClAUrq9EjlUU-zj0WXr-245" value="ma&lt;span style=&quot;color: rgba(0, 0, 0, 0); font-family: monospace; font-size: 0px; text-align: start; text-wrap-mode: nowrap;&quot;&gt;%3CmxGraphModel%3E%3Croot%3E%3CmxCell%20id%3D%220%22%2F%3E%3CmxCell%20id%3D%221%22%20parent%3D%220%22%2F%3E%3CmxCell%20id%3D%222%22%20value%3D%22co%26lt%3Bspan%20style%3D%26quot%3Bcolor%3A%20rgba(0%2C%200%2C%200%2C%200)%3B%20font-family%3A%20monospace%3B%20font-size%3A%200px%3B%20text-align%3A%20start%3B%20text-wrap-mode%3A%20nowrap%3B%26quot%3B%26gt%3B%253CmxGraphModel%253E%253Croot%253E%253CmxCell%2520id%253D%25220%2522%252F%253E%253CmxCell%2520id%253D%25221%2522%2520parent%253D%25220%2522%252F%253E%253CmxCell%2520id%253D%25222%2522%2520value%253D%2522type%2522%2520style%253D%2522ellipse%253BwhiteSpace%253Dwrap%253Bhtml%253D1%253B%2522%2520vertex%253D%25221%2522%2520parent%253D%25221%2522%253E%253CmxGeometry%2520x%253D%25221560%2522%2520y%253D%2522207.5%2522%2520width%253D%252290%2522%2520height%253D%252250%2522%2520as%253D%2522geometry%2522%252F%253E%253C%252FmxCell%253E%253C%252Froot%253E%253C%252FmxGraphModel%253E%26lt%3B%2Fspan%26gt%3Blor%22%20style%3D%22ellipse%3BwhiteSpace%3Dwrap%3Bhtml%3D1%3B%22%20vertex%3D%221%22%20parent%3D%221%22%3E%3CmxGeometry%20x%3D%221580%22%20y%3D%22270%22%20width%3D%2290%22%20height%3D%2250%22%20as%3D%22geometry%22%2F%3E%3C%2FmxCell%3E%3C%2Froot%3E%3C%2FmxGraphModel%3E&lt;/span&gt;terial" style="ellipse;whiteSpace=wrap;html=1;" parent="1" vertex="1">
          <mxGeometry x="3160" y="1024.82" width="90" height="50" as="geometry" />
        </mxCell>
        <mxCell id="WClAUrq9EjlUU-zj0WXr-246" style="edgeStyle=none;shape=connector;rounded=0;orthogonalLoop=1;jettySize=auto;html=1;exitX=1;exitY=0.5;exitDx=0;exitDy=0;entryX=0;entryY=0.75;entryDx=0;entryDy=0;strokeColor=default;align=center;verticalAlign=middle;fontFamily=Helvetica;fontSize=11;fontColor=default;labelBackgroundColor=default;endArrow=none;endFill=0;" parent="1" source="WClAUrq9EjlUU-zj0WXr-247" target="WClAUrq9EjlUU-zj0WXr-80" edge="1">
          <mxGeometry relative="1" as="geometry">
            <mxPoint x="2782.5" y="1142.32" as="targetPoint" />
          </mxGeometry>
        </mxCell>
        <mxCell id="WClAUrq9EjlUU-zj0WXr-247" value="fan size" style="ellipse;whiteSpace=wrap;html=1;" parent="1" vertex="1">
          <mxGeometry x="2950" y="904.82" width="90" height="50" as="geometry" />
        </mxCell>
        <mxCell id="WClAUrq9EjlUU-zj0WXr-248" style="edgeStyle=none;shape=connector;rounded=0;orthogonalLoop=1;jettySize=auto;html=1;exitX=1;exitY=0.5;exitDx=0;exitDy=0;entryX=0;entryY=0.5;entryDx=0;entryDy=0;strokeColor=default;align=center;verticalAlign=middle;fontFamily=Helvetica;fontSize=11;fontColor=default;labelBackgroundColor=default;endArrow=none;endFill=0;" parent="1" source="WClAUrq9EjlUU-zj0WXr-249" target="WClAUrq9EjlUU-zj0WXr-80" edge="1">
          <mxGeometry relative="1" as="geometry">
            <mxPoint x="2782.5" y="1172.32" as="targetPoint" />
          </mxGeometry>
        </mxCell>
        <mxCell id="WClAUrq9EjlUU-zj0WXr-249" value="wattag&lt;span style=&quot;color: rgba(0, 0, 0, 0); font-family: monospace; font-size: 0px; text-align: start; text-wrap-mode: nowrap;&quot;&gt;%3CmxGraphModel%3E%3Croot%3E%3CmxCell%20id%3D%220%22%2F%3E%3CmxCell%20id%3D%221%22%20parent%3D%220%22%2F%3E%3CmxCell%20id%3D%222%22%20value%3D%22rotational%20speed%22%20style%3D%22ellipse%3BwhiteSpace%3Dwrap%3Bhtml%3D1%3B%22%20vertex%3D%221%22%20parent%3D%221%22%3E%3CmxGeometry%20x%3D%22990%22%20y%3D%22570%22%20width%3D%2290%22%20height%3D%2250%22%20as%3D%22geometry%22%2F%3E%3C%2FmxCell%3E%3C%2Froot%3E%3C%2FmxGraphModel%3E&lt;/span&gt;e" style="ellipse;whiteSpace=wrap;html=1;" parent="1" vertex="1">
          <mxGeometry x="3080" y="922.32" width="90" height="50" as="geometry" />
        </mxCell>
        <mxCell id="WClAUrq9EjlUU-zj0WXr-250" style="edgeStyle=none;shape=connector;rounded=0;orthogonalLoop=1;jettySize=auto;html=1;exitX=1;exitY=0.5;exitDx=0;exitDy=0;entryX=0;entryY=0.75;entryDx=0;entryDy=0;strokeColor=default;align=center;verticalAlign=middle;fontFamily=Helvetica;fontSize=11;fontColor=default;labelBackgroundColor=default;endArrow=none;endFill=0;" parent="1" source="WClAUrq9EjlUU-zj0WXr-251" target="WClAUrq9EjlUU-zj0WXr-80" edge="1">
          <mxGeometry relative="1" as="geometry">
            <mxPoint x="2812.5" y="1132.32" as="targetPoint" />
          </mxGeometry>
        </mxCell>
        <mxCell id="WClAUrq9EjlUU-zj0WXr-251" value="dimensions" style="ellipse;whiteSpace=wrap;html=1;" parent="1" vertex="1">
          <mxGeometry x="3090" y="1147.5" width="90" height="50" as="geometry" />
        </mxCell>
        <mxCell id="WClAUrq9EjlUU-zj0WXr-252" style="edgeStyle=none;shape=connector;rounded=0;orthogonalLoop=1;jettySize=auto;html=1;exitX=0.5;exitY=0;exitDx=0;exitDy=0;entryX=1;entryY=0;entryDx=0;entryDy=0;strokeColor=default;align=center;verticalAlign=middle;fontFamily=Helvetica;fontSize=11;fontColor=default;labelBackgroundColor=default;endArrow=none;endFill=0;" parent="1" source="WClAUrq9EjlUU-zj0WXr-253" target="WClAUrq9EjlUU-zj0WXr-80" edge="1">
          <mxGeometry relative="1" as="geometry">
            <mxPoint x="2902.5" y="1152.32" as="targetPoint" />
          </mxGeometry>
        </mxCell>
        <mxCell id="WClAUrq9EjlUU-zj0WXr-253" value="number of fans" style="ellipse;whiteSpace=wrap;html=1;" parent="1" vertex="1">
          <mxGeometry x="3240" y="974.82" width="90" height="50" as="geometry" />
        </mxCell>
        <mxCell id="WClAUrq9EjlUU-zj0WXr-254" style="edgeStyle=none;shape=connector;rounded=0;orthogonalLoop=1;jettySize=auto;html=1;exitX=0;exitY=1;exitDx=0;exitDy=0;entryX=0.5;entryY=1;entryDx=0;entryDy=0;strokeColor=default;align=center;verticalAlign=middle;fontFamily=Helvetica;fontSize=11;fontColor=default;labelBackgroundColor=default;endArrow=none;endFill=0;" parent="1" source="WClAUrq9EjlUU-zj0WXr-242" target="WClAUrq9EjlUU-zj0WXr-80" edge="1">
          <mxGeometry relative="1" as="geometry">
            <mxPoint x="2857.5" y="1133.32" as="targetPoint" />
          </mxGeometry>
        </mxCell>
        <mxCell id="WClAUrq9EjlUU-zj0WXr-255" style="edgeStyle=none;shape=connector;rounded=0;orthogonalLoop=1;jettySize=auto;html=1;exitX=0;exitY=1;exitDx=0;exitDy=0;strokeColor=default;align=center;verticalAlign=middle;fontFamily=Helvetica;fontSize=11;fontColor=default;labelBackgroundColor=default;endArrow=none;endFill=0;entryX=0.25;entryY=1;entryDx=0;entryDy=0;" parent="1" source="WClAUrq9EjlUU-zj0WXr-243" target="WClAUrq9EjlUU-zj0WXr-80" edge="1">
          <mxGeometry relative="1" as="geometry">
            <mxPoint x="2855.5" y="1132.32" as="targetPoint" />
          </mxGeometry>
        </mxCell>
        <mxCell id="WClAUrq9EjlUU-zj0WXr-242" value="type" style="ellipse;whiteSpace=wrap;html=1;" parent="1" vertex="1">
          <mxGeometry x="3180" y="927.32" width="90" height="50" as="geometry" />
        </mxCell>
        <mxCell id="WClAUrq9EjlUU-zj0WXr-243" value="co&lt;span style=&quot;color: rgba(0, 0, 0, 0); font-family: monospace; font-size: 0px; text-align: start; text-wrap-mode: nowrap;&quot;&gt;%3CmxGraphModel%3E%3Croot%3E%3CmxCell%20id%3D%220%22%2F%3E%3CmxCell%20id%3D%221%22%20parent%3D%220%22%2F%3E%3CmxCell%20id%3D%222%22%20value%3D%22type%22%20style%3D%22ellipse%3BwhiteSpace%3Dwrap%3Bhtml%3D1%3B%22%20vertex%3D%221%22%20parent%3D%221%22%3E%3CmxGeometry%20x%3D%221560%22%20y%3D%22207.5%22%20width%3D%2290%22%20height%3D%2250%22%20as%3D%22geometry%22%2F%3E%3C%2FmxCell%3E%3C%2Froot%3E%3C%2FmxGraphModel%3E&lt;/span&gt;lor" style="ellipse;whiteSpace=wrap;html=1;" parent="1" vertex="1">
          <mxGeometry x="3240" y="1057.32" width="90" height="50" as="geometry" />
        </mxCell>
        <mxCell id="WClAUrq9EjlUU-zj0WXr-271" value="" style="edgeStyle=none;shape=connector;rounded=0;orthogonalLoop=1;jettySize=auto;html=1;strokeColor=default;align=center;verticalAlign=middle;fontFamily=Helvetica;fontSize=12;fontColor=default;labelBackgroundColor=default;endArrow=none;endFill=0;" parent="1" source="WClAUrq9EjlUU-zj0WXr-262" target="WClAUrq9EjlUU-zj0WXr-270" edge="1">
          <mxGeometry relative="1" as="geometry" />
        </mxCell>
        <mxCell id="WClAUrq9EjlUU-zj0WXr-263" value="date" style="ellipse;whiteSpace=wrap;html=1;rounded=0;" parent="1" vertex="1">
          <mxGeometry x="2430" y="715" width="80" height="30" as="geometry" />
        </mxCell>
        <mxCell id="WClAUrq9EjlUU-zj0WXr-266" value="price" style="ellipse;whiteSpace=wrap;html=1;rounded=0;" parent="1" vertex="1">
          <mxGeometry x="2457.5" y="745" width="70" height="30" as="geometry" />
        </mxCell>
        <mxCell id="WClAUrq9EjlUU-zj0WXr-270" value="&lt;u&gt;tracking code&lt;/u&gt;" style="ellipse;whiteSpace=wrap;html=1;rounded=0;" parent="1" vertex="1">
          <mxGeometry x="2249.21" y="197.5" width="100" height="35" as="geometry" />
        </mxCell>
        <mxCell id="WClAUrq9EjlUU-zj0WXr-274" value="" style="edgeStyle=none;shape=connector;rounded=0;orthogonalLoop=1;jettySize=auto;html=1;strokeColor=default;align=center;verticalAlign=middle;fontFamily=Helvetica;fontSize=12;fontColor=default;labelBackgroundColor=default;endArrow=none;endFill=0;exitX=0.771;exitY=0.963;exitDx=0;exitDy=0;exitPerimeter=0;" parent="1" source="WClAUrq9EjlUU-zj0WXr-262" target="WClAUrq9EjlUU-zj0WXr-275" edge="1">
          <mxGeometry relative="1" as="geometry">
            <mxPoint x="2385.46" y="297.5" as="sourcePoint" />
          </mxGeometry>
        </mxCell>
        <mxCell id="WClAUrq9EjlUU-zj0WXr-275" value="amount" style="ellipse;whiteSpace=wrap;html=1;rounded=0;" parent="1" vertex="1">
          <mxGeometry x="2265" y="247.5" width="100" height="35" as="geometry" />
        </mxCell>
        <mxCell id="WClAUrq9EjlUU-zj0WXr-276" value="" style="edgeStyle=none;shape=connector;rounded=0;orthogonalLoop=1;jettySize=auto;html=1;strokeColor=default;align=center;verticalAlign=middle;fontFamily=Helvetica;fontSize=12;fontColor=default;labelBackgroundColor=default;endArrow=none;endFill=0;exitX=0.648;exitY=0.971;exitDx=0;exitDy=0;exitPerimeter=0;" parent="1" source="WClAUrq9EjlUU-zj0WXr-262" target="WClAUrq9EjlUU-zj0WXr-277" edge="1">
          <mxGeometry relative="1" as="geometry">
            <mxPoint x="2315.46" y="327.5" as="sourcePoint" />
          </mxGeometry>
        </mxCell>
        <mxCell id="WClAUrq9EjlUU-zj0WXr-277" value="status" style="ellipse;whiteSpace=wrap;html=1;rounded=0;" parent="1" vertex="1">
          <mxGeometry x="2230" y="287" width="100" height="35" as="geometry" />
        </mxCell>
        <mxCell id="WClAUrq9EjlUU-zj0WXr-278" value="" style="edgeStyle=none;shape=connector;rounded=0;orthogonalLoop=1;jettySize=auto;html=1;strokeColor=default;align=center;verticalAlign=middle;fontFamily=Helvetica;fontSize=12;fontColor=default;labelBackgroundColor=default;endArrow=none;endFill=0;exitX=0.5;exitY=1;exitDx=0;exitDy=0;" parent="1" source="WClAUrq9EjlUU-zj0WXr-262" target="WClAUrq9EjlUU-zj0WXr-279" edge="1">
          <mxGeometry relative="1" as="geometry">
            <mxPoint x="2262.96" y="287.5" as="sourcePoint" />
          </mxGeometry>
        </mxCell>
        <mxCell id="WClAUrq9EjlUU-zj0WXr-279" value="date" style="ellipse;whiteSpace=wrap;html=1;rounded=0;" parent="1" vertex="1">
          <mxGeometry x="2170" y="322" width="100" height="35" as="geometry" />
        </mxCell>
        <mxCell id="WClAUrq9EjlUU-zj0WXr-285" value="&lt;font face=&quot;Georgia&quot;&gt;COMPATIBLE_&lt;br&gt;CPU_MOTHERBOARD&lt;/font&gt;" style="rhombus;whiteSpace=wrap;html=1;fillColor=#f5f5f5;strokeColor=#666666;fontColor=#333333;rounded=0;" parent="1" vertex="1">
          <mxGeometry x="1490" y="1387.5" width="180" height="102.5" as="geometry" />
        </mxCell>
        <mxCell id="WClAUrq9EjlUU-zj0WXr-286" style="edgeStyle=none;shape=connector;rounded=0;orthogonalLoop=1;jettySize=auto;html=1;strokeColor=default;align=center;verticalAlign=middle;fontFamily=Helvetica;fontSize=12;fontColor=default;labelBackgroundColor=default;endArrow=none;endFill=0;exitX=0.5;exitY=0;exitDx=0;exitDy=0;entryX=0;entryY=0.5;entryDx=0;entryDy=0;" parent="1" source="WClAUrq9EjlUU-zj0WXr-70" target="WClAUrq9EjlUU-zj0WXr-287" edge="1">
          <mxGeometry relative="1" as="geometry">
            <mxPoint x="2410" y="1610" as="targetPoint" />
            <mxPoint x="2381" y="1715" as="sourcePoint" />
          </mxGeometry>
        </mxCell>
        <mxCell id="LdFAEq9sarEnEC0SSBv0-15" value="N" style="edgeLabel;html=1;align=center;verticalAlign=middle;resizable=0;points=[];" parent="WClAUrq9EjlUU-zj0WXr-286" vertex="1" connectable="0">
          <mxGeometry x="0.652" y="1" relative="1" as="geometry">
            <mxPoint as="offset" />
          </mxGeometry>
        </mxCell>
        <mxCell id="WClAUrq9EjlUU-zj0WXr-288" style="edgeStyle=none;shape=connector;rounded=0;orthogonalLoop=1;jettySize=auto;html=1;entryX=0;entryY=1;entryDx=0;entryDy=0;strokeColor=default;align=center;verticalAlign=middle;fontFamily=Helvetica;fontSize=12;fontColor=default;labelBackgroundColor=default;endArrow=none;endFill=0;exitX=1;exitY=0.5;exitDx=0;exitDy=0;" parent="1" source="WClAUrq9EjlUU-zj0WXr-287" target="WClAUrq9EjlUU-zj0WXr-76" edge="1">
          <mxGeometry relative="1" as="geometry">
            <Array as="points" />
            <mxPoint x="2680" y="1160" as="sourcePoint" />
          </mxGeometry>
        </mxCell>
        <mxCell id="LdFAEq9sarEnEC0SSBv0-16" value="M" style="edgeLabel;html=1;align=center;verticalAlign=middle;resizable=0;points=[];" parent="WClAUrq9EjlUU-zj0WXr-288" vertex="1" connectable="0">
          <mxGeometry x="-0.225" y="-4" relative="1" as="geometry">
            <mxPoint as="offset" />
          </mxGeometry>
        </mxCell>
        <mxCell id="WClAUrq9EjlUU-zj0WXr-287" value="&lt;font face=&quot;Georgia&quot;&gt;COMPATIBLE_&lt;br&gt;MOTHERBOARD_GPU&lt;/font&gt;" style="rhombus;whiteSpace=wrap;html=1;fillColor=#f5f5f5;strokeColor=#666666;fontColor=#333333;rounded=0;" parent="1" vertex="1">
          <mxGeometry x="1810" y="1690" width="196.25" height="90" as="geometry" />
        </mxCell>
        <mxCell id="WClAUrq9EjlUU-zj0WXr-292" style="edgeStyle=none;shape=connector;rounded=0;orthogonalLoop=1;jettySize=auto;html=1;strokeColor=default;align=center;verticalAlign=middle;fontFamily=Helvetica;fontSize=12;fontColor=default;labelBackgroundColor=default;endArrow=none;endFill=0;entryX=0.415;entryY=0.855;entryDx=0;entryDy=0;entryPerimeter=0;" parent="1" source="WClAUrq9EjlUU-zj0WXr-82" target="WClAUrq9EjlUU-zj0WXr-293" edge="1">
          <mxGeometry relative="1" as="geometry">
            <mxPoint x="1370" y="2150" as="targetPoint" />
          </mxGeometry>
        </mxCell>
        <mxCell id="LdFAEq9sarEnEC0SSBv0-10" value="N" style="edgeLabel;html=1;align=center;verticalAlign=middle;resizable=0;points=[];" parent="WClAUrq9EjlUU-zj0WXr-292" vertex="1" connectable="0">
          <mxGeometry x="0.2072" y="1" relative="1" as="geometry">
            <mxPoint as="offset" />
          </mxGeometry>
        </mxCell>
        <mxCell id="WClAUrq9EjlUU-zj0WXr-82" value="&lt;font face=&quot;Georgia&quot;&gt;CPU&lt;/font&gt;" style="whiteSpace=wrap;html=1;fillColor=#f5f5f5;strokeColor=#666666;fontColor=#333333;rounded=0;" parent="1" vertex="1">
          <mxGeometry x="1326.25" y="1327.5" width="120" height="60" as="geometry" />
        </mxCell>
        <mxCell id="WClAUrq9EjlUU-zj0WXr-289" style="edgeStyle=none;shape=connector;rounded=0;orthogonalLoop=1;jettySize=auto;html=1;strokeColor=default;align=center;verticalAlign=middle;fontFamily=Helvetica;fontSize=12;fontColor=default;labelBackgroundColor=default;endArrow=none;endFill=0;entryX=1;entryY=0.5;entryDx=0;entryDy=0;exitX=0;exitY=0.75;exitDx=0;exitDy=0;" parent="1" source="WClAUrq9EjlUU-zj0WXr-70" target="WClAUrq9EjlUU-zj0WXr-290" edge="1">
          <mxGeometry relative="1" as="geometry">
            <mxPoint x="2220" y="1605" as="targetPoint" />
            <mxPoint x="2191" y="1710" as="sourcePoint" />
          </mxGeometry>
        </mxCell>
        <mxCell id="LdFAEq9sarEnEC0SSBv0-13" value="M" style="edgeLabel;html=1;align=center;verticalAlign=middle;resizable=0;points=[];" parent="WClAUrq9EjlUU-zj0WXr-289" vertex="1" connectable="0">
          <mxGeometry x="0.0804" y="-1" relative="1" as="geometry">
            <mxPoint as="offset" />
          </mxGeometry>
        </mxCell>
        <mxCell id="WClAUrq9EjlUU-zj0WXr-291" style="edgeStyle=none;shape=connector;rounded=0;orthogonalLoop=1;jettySize=auto;html=1;strokeColor=default;align=center;verticalAlign=middle;fontFamily=Helvetica;fontSize=12;fontColor=default;labelBackgroundColor=default;endArrow=none;endFill=0;entryX=0;entryY=1;entryDx=0;entryDy=0;" parent="1" source="WClAUrq9EjlUU-zj0WXr-290" target="WClAUrq9EjlUU-zj0WXr-69" edge="1">
          <mxGeometry relative="1" as="geometry">
            <mxPoint x="1979.3036480686696" y="2100.004377682403" as="sourcePoint" />
          </mxGeometry>
        </mxCell>
        <mxCell id="LdFAEq9sarEnEC0SSBv0-14" value="N" style="edgeLabel;html=1;align=center;verticalAlign=middle;resizable=0;points=[];" parent="WClAUrq9EjlUU-zj0WXr-291" vertex="1" connectable="0">
          <mxGeometry x="-0.2202" y="-2" relative="1" as="geometry">
            <mxPoint as="offset" />
          </mxGeometry>
        </mxCell>
        <mxCell id="WClAUrq9EjlUU-zj0WXr-290" value="&lt;font face=&quot;Georgia&quot;&gt;COMPATIBLE_&lt;br&gt;MOTHERBOARD_SSD&lt;/font&gt;" style="rhombus;whiteSpace=wrap;html=1;fillColor=#f5f5f5;strokeColor=#666666;fontColor=#333333;rounded=0;" parent="1" vertex="1">
          <mxGeometry x="1860" y="1540" width="190" height="80" as="geometry" />
        </mxCell>
        <mxCell id="WClAUrq9EjlUU-zj0WXr-294" style="edgeStyle=none;shape=connector;rounded=0;orthogonalLoop=1;jettySize=auto;html=1;entryX=0;entryY=0.25;entryDx=0;entryDy=0;strokeColor=default;align=center;verticalAlign=middle;fontFamily=Helvetica;fontSize=12;fontColor=default;labelBackgroundColor=default;endArrow=none;endFill=0;" parent="1" source="WClAUrq9EjlUU-zj0WXr-293" target="WClAUrq9EjlUU-zj0WXr-73" edge="1">
          <mxGeometry relative="1" as="geometry">
            <Array as="points" />
            <mxPoint x="1490.0014714691656" y="1156.3495507257508" as="sourcePoint" />
          </mxGeometry>
        </mxCell>
        <mxCell id="LdFAEq9sarEnEC0SSBv0-9" value="M" style="edgeLabel;html=1;align=center;verticalAlign=middle;resizable=0;points=[];" parent="WClAUrq9EjlUU-zj0WXr-294" vertex="1" connectable="0">
          <mxGeometry x="-0.0182" y="4" relative="1" as="geometry">
            <mxPoint as="offset" />
          </mxGeometry>
        </mxCell>
        <mxCell id="WClAUrq9EjlUU-zj0WXr-293" value="&lt;font face=&quot;Georgia&quot;&gt;COMPATIBLE_CPU_COOLER&lt;/font&gt;" style="rhombus;whiteSpace=wrap;html=1;fillColor=#f5f5f5;strokeColor=#666666;fontColor=#333333;rounded=0;" parent="1" vertex="1">
          <mxGeometry x="1364.96" y="1085" width="203.75" height="80" as="geometry" />
        </mxCell>
        <mxCell id="WClAUrq9EjlUU-zj0WXr-153" value="brand" style="ellipse;whiteSpace=wrap;html=1;rounded=0;" parent="1" vertex="1">
          <mxGeometry x="1276.25" y="1260" width="95" height="40" as="geometry" />
        </mxCell>
        <mxCell id="WClAUrq9EjlUU-zj0WXr-297" style="edgeStyle=none;shape=connector;rounded=0;orthogonalLoop=1;jettySize=auto;html=1;entryX=0;entryY=0.25;entryDx=0;entryDy=0;strokeColor=default;align=center;verticalAlign=middle;fontFamily=Helvetica;fontSize=12;fontColor=default;labelBackgroundColor=default;endArrow=none;endFill=0;" parent="1" source="WClAUrq9EjlUU-zj0WXr-296" target="WClAUrq9EjlUU-zj0WXr-78" edge="1">
          <mxGeometry relative="1" as="geometry">
            <Array as="points" />
          </mxGeometry>
        </mxCell>
        <mxCell id="LdFAEq9sarEnEC0SSBv0-18" value="M" style="edgeLabel;html=1;align=center;verticalAlign=middle;resizable=0;points=[];" parent="WClAUrq9EjlUU-zj0WXr-297" vertex="1" connectable="0">
          <mxGeometry x="0.0728" y="2" relative="1" as="geometry">
            <mxPoint as="offset" />
          </mxGeometry>
        </mxCell>
        <mxCell id="WClAUrq9EjlUU-zj0WXr-296" value="&lt;font face=&quot;Georgia&quot;&gt;COMPATIBLE_TO_&lt;br&gt;GPU_POWER&lt;/font&gt;" style="rhombus;whiteSpace=wrap;html=1;fillColor=#f5f5f5;strokeColor=#666666;fontColor=#333333;rounded=0;" parent="1" vertex="1">
          <mxGeometry x="2420" y="1427.5" width="150" height="91.56" as="geometry" />
        </mxCell>
        <mxCell id="IoCmfV2fsa8UyzMgt1fZ-3" value="" style="edgeStyle=none;shape=connector;rounded=0;orthogonalLoop=1;jettySize=auto;html=1;strokeColor=default;align=center;verticalAlign=middle;fontFamily=Helvetica;fontSize=12;fontColor=default;labelBackgroundColor=default;endArrow=none;endFill=0;" parent="1" source="IoCmfV2fsa8UyzMgt1fZ-4" target="IoCmfV2fsa8UyzMgt1fZ-6" edge="1">
          <mxGeometry relative="1" as="geometry" />
        </mxCell>
        <mxCell id="IoCmfV2fsa8UyzMgt1fZ-6" value="floor" style="ellipse;whiteSpace=wrap;html=1;rounded=0;" parent="1" vertex="1">
          <mxGeometry x="1727.96" y="322" width="100" height="35" as="geometry" />
        </mxCell>
        <mxCell id="IoCmfV2fsa8UyzMgt1fZ-7" value="" style="edgeStyle=none;shape=connector;rounded=0;orthogonalLoop=1;jettySize=auto;html=1;strokeColor=default;align=center;verticalAlign=middle;fontFamily=Helvetica;fontSize=12;fontColor=default;labelBackgroundColor=default;endArrow=none;endFill=0;exitX=0.945;exitY=1;exitDx=0;exitDy=0;exitPerimeter=0;" parent="1" source="IoCmfV2fsa8UyzMgt1fZ-4" target="IoCmfV2fsa8UyzMgt1fZ-8" edge="1">
          <mxGeometry relative="1" as="geometry">
            <mxPoint x="1925.46" y="367.5" as="sourcePoint" />
          </mxGeometry>
        </mxCell>
        <mxCell id="IoCmfV2fsa8UyzMgt1fZ-8" value="counter" style="ellipse;whiteSpace=wrap;html=1;rounded=0;" parent="1" vertex="1">
          <mxGeometry x="1731" y="272" width="100" height="35" as="geometry" />
        </mxCell>
        <mxCell id="IoCmfV2fsa8UyzMgt1fZ-9" value="" style="edgeStyle=none;shape=connector;rounded=0;orthogonalLoop=1;jettySize=auto;html=1;strokeColor=default;align=center;verticalAlign=middle;fontFamily=Helvetica;fontSize=12;fontColor=default;labelBackgroundColor=default;endArrow=none;endFill=0;exitX=0.75;exitY=1;exitDx=0;exitDy=0;" parent="1" source="IoCmfV2fsa8UyzMgt1fZ-4" target="IoCmfV2fsa8UyzMgt1fZ-10" edge="1">
          <mxGeometry relative="1" as="geometry">
            <mxPoint x="1874.21" y="402.5" as="sourcePoint" />
          </mxGeometry>
        </mxCell>
        <mxCell id="IoCmfV2fsa8UyzMgt1fZ-10" value="amount discount&amp;nbsp;" style="ellipse;whiteSpace=wrap;html=1;rounded=0;" parent="1" vertex="1">
          <mxGeometry x="1779.96" y="231" width="110" height="35" as="geometry" />
        </mxCell>
        <mxCell id="IoCmfV2fsa8UyzMgt1fZ-11" value="" style="edgeStyle=none;shape=connector;rounded=0;orthogonalLoop=1;jettySize=auto;html=1;strokeColor=default;align=center;verticalAlign=middle;fontFamily=Helvetica;fontSize=12;fontColor=default;labelBackgroundColor=default;endArrow=none;endFill=0;entryX=0.359;entryY=0.906;entryDx=0;entryDy=0;entryPerimeter=0;" parent="1" target="IoCmfV2fsa8UyzMgt1fZ-25" edge="1">
          <mxGeometry relative="1" as="geometry">
            <mxPoint x="1907.96" y="340" as="sourcePoint" />
            <mxPoint x="2011.7531034482777" y="375.4310344827593" as="targetPoint" />
          </mxGeometry>
        </mxCell>
        <mxCell id="IoCmfV2fsa8UyzMgt1fZ-15" value="" style="edgeStyle=none;shape=connector;rounded=0;orthogonalLoop=1;jettySize=auto;html=1;strokeColor=default;align=center;verticalAlign=middle;fontFamily=Helvetica;fontSize=12;fontColor=default;labelBackgroundColor=default;endArrow=none;endFill=0;exitX=0.328;exitY=-0.003;exitDx=0;exitDy=0;exitPerimeter=0;" parent="1" source="IoCmfV2fsa8UyzMgt1fZ-4" target="IoCmfV2fsa8UyzMgt1fZ-16" edge="1">
          <mxGeometry relative="1" as="geometry">
            <mxPoint x="1889.21" y="200" as="sourcePoint" />
          </mxGeometry>
        </mxCell>
        <mxCell id="IoCmfV2fsa8UyzMgt1fZ-16" value="expire" style="ellipse;whiteSpace=wrap;html=1;rounded=0;" parent="1" vertex="1">
          <mxGeometry x="1787.46" y="359.5" width="100" height="35" as="geometry" />
        </mxCell>
        <mxCell id="LdFAEq9sarEnEC0SSBv0-58" style="rounded=0;orthogonalLoop=1;jettySize=auto;html=1;entryX=0;entryY=0.5;entryDx=0;entryDy=0;endArrow=none;endFill=0;" parent="1" source="LdFAEq9sarEnEC0SSBv0-61" target="WClAUrq9EjlUU-zj0WXr-262" edge="1">
          <mxGeometry relative="1" as="geometry">
            <Array as="points" />
          </mxGeometry>
        </mxCell>
        <mxCell id="w6JVnywSqi0pG-dbaEL0-4" value="N" style="edgeLabel;html=1;align=center;verticalAlign=middle;resizable=0;points=[];fontFamily=Helvetica;fontSize=11;fontColor=default;labelBackgroundColor=default;" parent="LdFAEq9sarEnEC0SSBv0-58" vertex="1" connectable="0">
          <mxGeometry x="0.1035" relative="1" as="geometry">
            <mxPoint as="offset" />
          </mxGeometry>
        </mxCell>
        <mxCell id="IoCmfV2fsa8UyzMgt1fZ-4" value="&lt;font face=&quot;Georgia&quot;&gt;Discount&lt;/font&gt;" style="whiteSpace=wrap;html=1;fillColor=#f5f5f5;strokeColor=#666666;fontColor=#333333;rounded=0;" parent="1" vertex="1">
          <mxGeometry x="1839.21" y="292.5" width="120" height="50" as="geometry" />
        </mxCell>
        <mxCell id="IoCmfV2fsa8UyzMgt1fZ-17" value="" style="edgeStyle=orthogonalEdgeStyle;rounded=0;orthogonalLoop=1;jettySize=auto;html=1;fontFamily=Helvetica;fontSize=12;fontColor=#333333;endArrow=none;endFill=0;shape=link;exitX=0.5;exitY=1;exitDx=0;exitDy=0;" parent="1" source="IoCmfV2fsa8UyzMgt1fZ-4" target="IoCmfV2fsa8UyzMgt1fZ-20" edge="1">
          <mxGeometry relative="1" as="geometry">
            <mxPoint x="1897.96" y="350" as="sourcePoint" />
          </mxGeometry>
        </mxCell>
        <mxCell id="IoCmfV2fsa8UyzMgt1fZ-20" value="&lt;font face=&quot;Georgia&quot;&gt;d&lt;/font&gt;" style="ellipse;whiteSpace=wrap;html=1;fillColor=#f5f5f5;strokeColor=#666666;fontColor=#333333;rounded=0;" parent="1" vertex="1">
          <mxGeometry x="1876.71" y="410" width="45" height="50" as="geometry" />
        </mxCell>
        <mxCell id="IoCmfV2fsa8UyzMgt1fZ-21" value="&lt;font face=&quot;Georgia&quot;&gt;Public discount&lt;/font&gt;" style="whiteSpace=wrap;html=1;fillColor=#f5f5f5;strokeColor=#666666;fontColor=#333333;rounded=0;" parent="1" vertex="1">
          <mxGeometry x="1953.75" y="470" width="120" height="60" as="geometry" />
        </mxCell>
        <mxCell id="IoCmfV2fsa8UyzMgt1fZ-22" value="&lt;font face=&quot;Georgia&quot;&gt;Private discount&lt;/font&gt;" style="whiteSpace=wrap;html=1;fillColor=#f5f5f5;strokeColor=#666666;fontColor=#333333;rounded=0;" parent="1" vertex="1">
          <mxGeometry x="1727.96" y="470" width="120" height="60" as="geometry" />
        </mxCell>
        <mxCell id="IoCmfV2fsa8UyzMgt1fZ-25" value="id" style="ellipse;whiteSpace=wrap;html=1;align=center;fontStyle=4;rounded=0;strokeColor=default;verticalAlign=middle;fontFamily=Helvetica;fontSize=12;fontColor=default;fillColor=default;" parent="1" vertex="1">
          <mxGeometry x="1895.83" y="232.5" width="100.21" height="40" as="geometry" />
        </mxCell>
        <mxCell id="jCe5e3LsCqJ8E380HKCm-6" value="" style="edgeStyle=none;shape=connector;rounded=0;orthogonalLoop=1;jettySize=auto;html=1;strokeColor=default;align=center;verticalAlign=middle;fontFamily=Helvetica;fontSize=12;fontColor=default;labelBackgroundColor=default;endArrow=none;endFill=0;entryX=0.5;entryY=0;entryDx=0;entryDy=0;exitX=1;exitY=1;exitDx=0;exitDy=0;" parent="1" source="WClAUrq9EjlUU-zj0WXr-1" target="jCe5e3LsCqJ8E380HKCm-8" edge="1">
          <mxGeometry relative="1" as="geometry">
            <mxPoint x="707.96" y="317.5" as="sourcePoint" />
          </mxGeometry>
        </mxCell>
        <mxCell id="LdFAEq9sarEnEC0SSBv0-7" value="1" style="edgeLabel;html=1;align=center;verticalAlign=middle;resizable=0;points=[];" parent="jCe5e3LsCqJ8E380HKCm-6" vertex="1" connectable="0">
          <mxGeometry x="0.4266" y="1" relative="1" as="geometry">
            <mxPoint as="offset" />
          </mxGeometry>
        </mxCell>
        <mxCell id="jCe5e3LsCqJ8E380HKCm-7" style="edgeStyle=none;shape=link;rounded=0;orthogonalLoop=1;jettySize=auto;html=1;entryX=0;entryY=0.75;entryDx=0;entryDy=0;strokeColor=default;align=center;verticalAlign=middle;fontFamily=Helvetica;fontSize=12;fontColor=default;labelBackgroundColor=default;endArrow=none;endFill=0;" parent="1" source="jCe5e3LsCqJ8E380HKCm-8" target="IoCmfV2fsa8UyzMgt1fZ-22" edge="1">
          <mxGeometry relative="1" as="geometry">
            <mxPoint x="677.96" y="336.5" as="targetPoint" />
            <Array as="points" />
          </mxGeometry>
        </mxCell>
        <mxCell id="LdFAEq9sarEnEC0SSBv0-8" value="1" style="edgeLabel;html=1;align=center;verticalAlign=middle;resizable=0;points=[];" parent="jCe5e3LsCqJ8E380HKCm-7" vertex="1" connectable="0">
          <mxGeometry x="-0.1124" relative="1" as="geometry">
            <mxPoint x="1" as="offset" />
          </mxGeometry>
        </mxCell>
        <mxCell id="jCe5e3LsCqJ8E380HKCm-8" value="&lt;font face=&quot;Georgia&quot;&gt;FOR&lt;/font&gt;" style="rhombus;whiteSpace=wrap;html=1;fillColor=#f5f5f5;strokeColor=#666666;fontColor=#333333;rounded=0;" parent="1" vertex="1">
          <mxGeometry x="1377.96" y="297" width="100" height="80" as="geometry" />
        </mxCell>
        <mxCell id="jCe5e3LsCqJ8E380HKCm-22" style="edgeStyle=none;rounded=0;orthogonalLoop=1;jettySize=auto;html=1;entryX=0.25;entryY=1;entryDx=0;entryDy=0;strokeColor=default;align=center;verticalAlign=middle;fontFamily=Helvetica;fontSize=11;fontColor=default;labelBackgroundColor=default;endArrow=none;endFill=0;exitX=0.25;exitY=0;exitDx=0;exitDy=0;" parent="1" source="TL0oi55XwLSw_DGboPtc-18" target="WClAUrq9EjlUU-zj0WXr-262" edge="1">
          <mxGeometry relative="1" as="geometry">
            <mxPoint x="2237.96" y="506" as="sourcePoint" />
            <Array as="points">
              <mxPoint x="2158" y="345" />
            </Array>
          </mxGeometry>
        </mxCell>
        <mxCell id="TL0oi55XwLSw_DGboPtc-47" value="1" style="edgeLabel;html=1;align=center;verticalAlign=middle;resizable=0;points=[];" parent="jCe5e3LsCqJ8E380HKCm-22" vertex="1" connectable="0">
          <mxGeometry x="-0.2392" y="1" relative="1" as="geometry">
            <mxPoint x="1" as="offset" />
          </mxGeometry>
        </mxCell>
        <mxCell id="jCe5e3LsCqJ8E380HKCm-38" value="" style="edgeStyle=none;shape=connector;rounded=0;orthogonalLoop=1;jettySize=auto;html=1;strokeColor=default;align=center;verticalAlign=middle;fontFamily=Helvetica;fontSize=11;fontColor=default;labelBackgroundColor=default;endArrow=none;endFill=0;exitX=0.25;exitY=1;exitDx=0;exitDy=0;" parent="1" source="LdFAEq9sarEnEC0SSBv0-68" target="jCe5e3LsCqJ8E380HKCm-37" edge="1">
          <mxGeometry relative="1" as="geometry">
            <mxPoint x="1098.75" y="860" as="sourcePoint" />
          </mxGeometry>
        </mxCell>
        <mxCell id="jCe5e3LsCqJ8E380HKCm-15" value="" style="rounded=0;orthogonalLoop=1;jettySize=auto;html=1;exitX=0.843;exitY=0.997;exitDx=0;exitDy=0;endArrow=none;endFill=0;exitPerimeter=0;" parent="1" source="WClAUrq9EjlUU-zj0WXr-1" target="LdFAEq9sarEnEC0SSBv0-69" edge="1">
          <mxGeometry relative="1" as="geometry">
            <mxPoint x="1047.96" y="140" as="sourcePoint" />
            <mxPoint x="1450.0600000000002" y="538.27" as="targetPoint" />
            <Array as="points" />
          </mxGeometry>
        </mxCell>
        <mxCell id="LdFAEq9sarEnEC0SSBv0-26" value="1" style="edgeLabel;html=1;align=center;verticalAlign=middle;resizable=0;points=[];" parent="jCe5e3LsCqJ8E380HKCm-15" vertex="1" connectable="0">
          <mxGeometry x="0.0645" y="-3" relative="1" as="geometry">
            <mxPoint as="offset" />
          </mxGeometry>
        </mxCell>
        <mxCell id="jCe5e3LsCqJ8E380HKCm-19" value="" style="edgeStyle=none;shape=link;rounded=0;orthogonalLoop=1;jettySize=auto;html=1;strokeColor=default;align=center;verticalAlign=middle;fontFamily=Helvetica;fontSize=11;fontColor=default;labelBackgroundColor=default;endArrow=none;endFill=0;entryX=1;entryY=0.75;entryDx=0;entryDy=0;" parent="1" source="LdFAEq9sarEnEC0SSBv0-35" target="LdFAEq9sarEnEC0SSBv0-36" edge="1">
          <mxGeometry relative="1" as="geometry">
            <mxPoint x="2183" y="857" as="sourcePoint" />
            <mxPoint x="2092" y="778" as="targetPoint" />
          </mxGeometry>
        </mxCell>
        <mxCell id="TL0oi55XwLSw_DGboPtc-52" value="1" style="edgeLabel;html=1;align=center;verticalAlign=middle;resizable=0;points=[];" parent="jCe5e3LsCqJ8E380HKCm-19" vertex="1" connectable="0">
          <mxGeometry x="-0.0543" y="1" relative="1" as="geometry">
            <mxPoint as="offset" />
          </mxGeometry>
        </mxCell>
        <mxCell id="jCe5e3LsCqJ8E380HKCm-24" value="" style="edgeStyle=none;shape=link;rounded=0;orthogonalLoop=1;jettySize=auto;html=1;entryX=0;entryY=0.75;entryDx=0;entryDy=0;strokeColor=default;align=center;verticalAlign=middle;fontFamily=Helvetica;fontSize=11;fontColor=default;labelBackgroundColor=default;endArrow=none;endFill=0;exitX=1;exitY=0;exitDx=0;exitDy=0;" parent="1" source="TL0oi55XwLSw_DGboPtc-21" target="LdFAEq9sarEnEC0SSBv0-42" edge="1">
          <mxGeometry relative="1" as="geometry">
            <mxPoint x="1772.96" y="690" as="sourcePoint" />
            <mxPoint x="2246.71" y="580" as="targetPoint" />
            <Array as="points" />
          </mxGeometry>
        </mxCell>
        <mxCell id="TL0oi55XwLSw_DGboPtc-49" value="1" style="edgeLabel;html=1;align=center;verticalAlign=middle;resizable=0;points=[];" parent="jCe5e3LsCqJ8E380HKCm-24" vertex="1" connectable="0">
          <mxGeometry x="0.1661" y="1" relative="1" as="geometry">
            <mxPoint as="offset" />
          </mxGeometry>
        </mxCell>
        <mxCell id="jCe5e3LsCqJ8E380HKCm-30" value="" style="edgeStyle=none;shape=connector;rounded=0;orthogonalLoop=1;jettySize=auto;html=1;entryX=0;entryY=0.25;entryDx=0;entryDy=0;strokeColor=default;align=center;verticalAlign=middle;fontFamily=Helvetica;fontSize=11;fontColor=default;labelBackgroundColor=default;endArrow=none;endFill=0;" parent="1" source="WClAUrq9EjlUU-zj0WXr-1" target="jCe5e3LsCqJ8E380HKCm-29" edge="1">
          <mxGeometry relative="1" as="geometry">
            <mxPoint x="1077.96" y="115" as="sourcePoint" />
            <mxPoint x="2235.96" y="210" as="targetPoint" />
          </mxGeometry>
        </mxCell>
        <mxCell id="LdFAEq9sarEnEC0SSBv0-6" value="1" style="edgeLabel;html=1;align=center;verticalAlign=middle;resizable=0;points=[];" parent="jCe5e3LsCqJ8E380HKCm-30" vertex="1" connectable="0">
          <mxGeometry x="-0.309" y="2" relative="1" as="geometry">
            <mxPoint as="offset" />
          </mxGeometry>
        </mxCell>
        <mxCell id="jCe5e3LsCqJ8E380HKCm-29" value="&lt;font face=&quot;Georgia&quot;&gt;CHARGE_WALLET&lt;/font&gt;" style="rhombus;whiteSpace=wrap;html=1;fillColor=#f5f5f5;strokeColor=#666666;fontColor=#333333;rounded=0;" parent="1" vertex="1">
          <mxGeometry x="1630" y="50" width="135" height="80" as="geometry" />
        </mxCell>
        <mxCell id="jCe5e3LsCqJ8E380HKCm-31" value="" style="edgeStyle=none;shape=connector;rounded=0;orthogonalLoop=1;jettySize=auto;html=1;strokeColor=default;align=center;verticalAlign=middle;fontFamily=Helvetica;fontSize=12;fontColor=default;labelBackgroundColor=default;endArrow=none;endFill=0;entryX=0.158;entryY=0.972;entryDx=0;entryDy=0;entryPerimeter=0;" parent="1" source="jCe5e3LsCqJ8E380HKCm-34" target="LdFAEq9sarEnEC0SSBv0-68" edge="1">
          <mxGeometry relative="1" as="geometry">
            <mxPoint x="1046.25" y="860" as="targetPoint" />
          </mxGeometry>
        </mxCell>
        <mxCell id="jCe5e3LsCqJ8E380HKCm-32" value="" style="edgeStyle=none;shape=connector;rounded=0;orthogonalLoop=1;jettySize=auto;html=1;strokeColor=default;align=center;verticalAlign=middle;fontFamily=Helvetica;fontSize=12;fontColor=default;labelBackgroundColor=default;endArrow=none;endFill=0;" parent="1" source="jCe5e3LsCqJ8E380HKCm-34" target="jCe5e3LsCqJ8E380HKCm-35" edge="1">
          <mxGeometry relative="1" as="geometry" />
        </mxCell>
        <mxCell id="jCe5e3LsCqJ8E380HKCm-33" value="" style="edgeStyle=none;shape=connector;rounded=0;orthogonalLoop=1;jettySize=auto;html=1;strokeColor=default;align=center;verticalAlign=middle;fontFamily=Helvetica;fontSize=12;fontColor=default;labelBackgroundColor=default;endArrow=none;endFill=0;" parent="1" source="jCe5e3LsCqJ8E380HKCm-34" target="jCe5e3LsCqJ8E380HKCm-36" edge="1">
          <mxGeometry relative="1" as="geometry" />
        </mxCell>
        <mxCell id="jCe5e3LsCqJ8E380HKCm-34" value="cart history" style="ellipse;shape=doubleEllipse;margin=3;whiteSpace=wrap;html=1;align=center;rounded=0;strokeColor=default;verticalAlign=middle;fontFamily=Helvetica;fontSize=12;fontColor=default;fillColor=default;" parent="1" vertex="1">
          <mxGeometry x="1575" y="637" width="100" height="40" as="geometry" />
        </mxCell>
        <mxCell id="jCe5e3LsCqJ8E380HKCm-35" value="convert to" style="ellipse;whiteSpace=wrap;html=1;rounded=0;" parent="1" vertex="1">
          <mxGeometry x="1568.75" y="710" width="80" height="40" as="geometry" />
        </mxCell>
        <mxCell id="jCe5e3LsCqJ8E380HKCm-36" value="date" style="ellipse;whiteSpace=wrap;html=1;rounded=0;" parent="1" vertex="1">
          <mxGeometry x="1491.25" y="692" width="80" height="40" as="geometry" />
        </mxCell>
        <mxCell id="jCe5e3LsCqJ8E380HKCm-37" value="type" style="ellipse;whiteSpace=wrap;html=1;" parent="1" vertex="1">
          <mxGeometry x="1660" y="697.5" width="75" height="40" as="geometry" />
        </mxCell>
        <mxCell id="WClAUrq9EjlUU-zj0WXr-70" value="&lt;font face=&quot;Georgia&quot;&gt;Motherboard&lt;/font&gt;" style="whiteSpace=wrap;html=1;fillColor=#f5f5f5;strokeColor=#666666;fontColor=#333333;rounded=0;" parent="1" vertex="1">
          <mxGeometry x="1523.75" y="1600" width="120" height="60" as="geometry" />
        </mxCell>
        <mxCell id="WClAUrq9EjlUU-zj0WXr-80" value="&lt;font face=&quot;Georgia&quot;&gt;Case&lt;/font&gt;" style="whiteSpace=wrap;html=1;fillColor=#f5f5f5;strokeColor=#666666;fontColor=#333333;rounded=0;" parent="1" vertex="1">
          <mxGeometry x="3020" y="1037.32" width="120" height="60" as="geometry" />
        </mxCell>
        <mxCell id="LdFAEq9sarEnEC0SSBv0-1" value="" style="edgeStyle=none;shape=connector;rounded=0;orthogonalLoop=1;jettySize=auto;html=1;strokeColor=default;align=center;verticalAlign=middle;fontFamily=Helvetica;fontSize=12;fontColor=default;labelBackgroundColor=default;endArrow=none;endFill=0;exitX=0.75;exitY=0;exitDx=0;exitDy=0;" parent="1" source="WClAUrq9EjlUU-zj0WXr-71" target="LdFAEq9sarEnEC0SSBv0-2" edge="1">
          <mxGeometry relative="1" as="geometry">
            <mxPoint x="2696" y="1100" as="sourcePoint" />
          </mxGeometry>
        </mxCell>
        <mxCell id="LdFAEq9sarEnEC0SSBv0-2" value="dimensions" style="ellipse;whiteSpace=wrap;html=1;rounded=0;" parent="1" vertex="1">
          <mxGeometry x="2762.5" y="1180.0000000000005" width="105" height="40" as="geometry" />
        </mxCell>
        <mxCell id="LdFAEq9sarEnEC0SSBv0-38" value="" style="edgeStyle=none;shape=connector;rounded=0;orthogonalLoop=1;jettySize=auto;html=1;strokeColor=default;align=center;verticalAlign=middle;fontFamily=Helvetica;fontSize=11;fontColor=default;labelBackgroundColor=default;endArrow=none;endFill=0;exitX=0.25;exitY=1;exitDx=0;exitDy=0;" parent="1" source="LdFAEq9sarEnEC0SSBv0-36" target="LdFAEq9sarEnEC0SSBv0-39" edge="1">
          <mxGeometry relative="1" as="geometry">
            <mxPoint x="1247.5" y="1127.5" as="sourcePoint" />
          </mxGeometry>
        </mxCell>
        <mxCell id="LdFAEq9sarEnEC0SSBv0-39" value="number" style="ellipse;whiteSpace=wrap;html=1;rounded=0;" parent="1" vertex="1">
          <mxGeometry x="2011" y="702.5" width="76.25" height="47.5" as="geometry" />
        </mxCell>
        <mxCell id="w6JVnywSqi0pG-dbaEL0-3" style="rounded=0;orthogonalLoop=1;jettySize=auto;html=1;entryX=0;entryY=0.5;entryDx=0;entryDy=0;endArrow=none;endFill=0;" parent="1" source="LdFAEq9sarEnEC0SSBv0-42" target="w6JVnywSqi0pG-dbaEL0-1" edge="1">
          <mxGeometry relative="1" as="geometry" />
        </mxCell>
        <mxCell id="LdFAEq9sarEnEC0SSBv0-55" value="" style="edgeStyle=none;shape=connector;rounded=0;orthogonalLoop=1;jettySize=auto;html=1;strokeColor=default;align=center;verticalAlign=middle;fontFamily=Helvetica;fontSize=11;fontColor=default;labelBackgroundColor=default;endArrow=none;endFill=0;exitX=0.5;exitY=1;exitDx=0;exitDy=0;" parent="1" source="LdFAEq9sarEnEC0SSBv0-68" target="LdFAEq9sarEnEC0SSBv0-56" edge="1">
          <mxGeometry relative="1" as="geometry">
            <mxPoint x="1112.4" y="861.5999999999999" as="sourcePoint" />
            <Array as="points" />
          </mxGeometry>
        </mxCell>
        <mxCell id="LdFAEq9sarEnEC0SSBv0-56" value="mode time" style="ellipse;whiteSpace=wrap;html=1;" parent="1" vertex="1">
          <mxGeometry x="1735.21" y="727.5" width="75" height="40" as="geometry" />
        </mxCell>
        <mxCell id="LdFAEq9sarEnEC0SSBv0-36" value="&lt;font face=&quot;Georgia&quot;&gt;Cart Item&lt;/font&gt;" style="shape=ext;margin=3;double=1;whiteSpace=wrap;html=1;align=center;fillColor=#f5f5f5;fontColor=#333333;strokeColor=#666666;" parent="1" vertex="1">
          <mxGeometry x="2065" y="657.5" width="100" height="40" as="geometry" />
        </mxCell>
        <mxCell id="LdFAEq9sarEnEC0SSBv0-59" value="" style="edgeStyle=none;shape=connector;rounded=0;orthogonalLoop=1;jettySize=auto;html=1;strokeColor=default;align=center;verticalAlign=middle;fontFamily=Helvetica;fontSize=12;fontColor=default;labelBackgroundColor=default;endArrow=none;endFill=0;exitX=0;exitY=0.75;exitDx=0;exitDy=0;" parent="1" source="WClAUrq9EjlUU-zj0WXr-1" target="LdFAEq9sarEnEC0SSBv0-60" edge="1">
          <mxGeometry relative="1" as="geometry">
            <mxPoint x="926.96" y="170.5" as="sourcePoint" />
          </mxGeometry>
        </mxCell>
        <mxCell id="LdFAEq9sarEnEC0SSBv0-60" value="register date" style="ellipse;whiteSpace=wrap;html=1;rounded=0;" parent="1" vertex="1">
          <mxGeometry x="995" y="217.5" width="90" height="40" as="geometry" />
        </mxCell>
        <mxCell id="LdFAEq9sarEnEC0SSBv0-61" value="&lt;font face=&quot;Georgia&quot;&gt;DO&lt;/font&gt;" style="rhombus;whiteSpace=wrap;html=1;fillColor=#f5f5f5;strokeColor=#666666;fontColor=#333333;rounded=0;direction=west;" parent="1" vertex="1">
          <mxGeometry x="1849.21" y="140" width="110" height="62.5" as="geometry" />
        </mxCell>
        <mxCell id="LdFAEq9sarEnEC0SSBv0-69" value="HAS" style="shape=rhombus;double=1;perimeter=rhombusPerimeter;whiteSpace=wrap;html=1;align=center;fillColor=#f5f5f5;fontColor=#333333;strokeColor=#666666;" parent="1" vertex="1">
          <mxGeometry x="1427.96" y="530" width="120" height="60" as="geometry" />
        </mxCell>
        <mxCell id="w6JVnywSqi0pG-dbaEL0-1" value="total price" style="ellipse;whiteSpace=wrap;html=1;rounded=0;" parent="1" vertex="1">
          <mxGeometry x="2386.09" y="548" width="100" height="35" as="geometry" />
        </mxCell>
        <mxCell id="w6JVnywSqi0pG-dbaEL0-9" value="" style="edgeStyle=none;shape=connector;rounded=0;orthogonalLoop=1;jettySize=auto;html=1;strokeColor=default;align=center;verticalAlign=middle;fontFamily=Helvetica;fontSize=11;fontColor=default;labelBackgroundColor=default;endArrow=none;endFill=0;entryX=0.31;entryY=0.04;entryDx=0;entryDy=0;entryPerimeter=0;" parent="1" source="LdFAEq9sarEnEC0SSBv0-68" target="w6JVnywSqi0pG-dbaEL0-11" edge="1">
          <mxGeometry relative="1" as="geometry">
            <mxPoint x="1810.25" y="710" as="sourcePoint" />
            <Array as="points" />
            <mxPoint x="1804.8129411764705" y="762.3529411764705" as="targetPoint" />
          </mxGeometry>
        </mxCell>
        <mxCell id="w6JVnywSqi0pG-dbaEL0-11" value="total price" style="ellipse;whiteSpace=wrap;html=1;align=center;dashed=1;fontFamily=Helvetica;fontSize=11;fontColor=default;labelBackgroundColor=default;" parent="1" vertex="1">
          <mxGeometry x="1805" y="697.5" width="100" height="40" as="geometry" />
        </mxCell>
        <mxCell id="w6JVnywSqi0pG-dbaEL0-16" value="" style="group" parent="1" vertex="1" connectable="0">
          <mxGeometry x="1854.8798729810778" y="443.5048094716167" width="16.160254037844425" height="20.69" as="geometry" />
        </mxCell>
        <mxCell id="IoCmfV2fsa8UyzMgt1fZ-19" value="" style="shape=connector;rounded=0;orthogonalLoop=1;jettySize=auto;html=1;strokeColor=default;align=center;verticalAlign=middle;fontFamily=Helvetica;fontSize=12;fontColor=#333333;labelBackgroundColor=default;endArrow=none;endFill=0;" parent="w6JVnywSqi0pG-dbaEL0-16" source="IoCmfV2fsa8UyzMgt1fZ-20" target="IoCmfV2fsa8UyzMgt1fZ-22" edge="1">
          <mxGeometry relative="1" as="geometry" />
        </mxCell>
        <mxCell id="w6JVnywSqi0pG-dbaEL0-14" value="" style="shape=requiredInterface;html=1;verticalLabelPosition=bottom;sketch=0;fontFamily=Helvetica;fontSize=11;fontColor=default;labelBackgroundColor=default;rotation=-210;" parent="w6JVnywSqi0pG-dbaEL0-16" vertex="1">
          <mxGeometry x="4.2" y="1.19" width="10" height="19.5" as="geometry" />
        </mxCell>
        <mxCell id="w6JVnywSqi0pG-dbaEL0-17" value="" style="group" parent="1" vertex="1" connectable="0">
          <mxGeometry x="1925" y="444.79" width="18.61" height="19.21" as="geometry" />
        </mxCell>
        <mxCell id="IoCmfV2fsa8UyzMgt1fZ-18" value="" style="shape=connector;rounded=0;orthogonalLoop=1;jettySize=auto;html=1;strokeColor=default;align=center;verticalAlign=middle;fontFamily=Helvetica;fontSize=12;fontColor=#333333;labelBackgroundColor=default;endArrow=none;endFill=0;" parent="w6JVnywSqi0pG-dbaEL0-17" source="IoCmfV2fsa8UyzMgt1fZ-20" target="IoCmfV2fsa8UyzMgt1fZ-21" edge="1">
          <mxGeometry relative="1" as="geometry" />
        </mxCell>
        <mxCell id="w6JVnywSqi0pG-dbaEL0-15" value="" style="shape=requiredInterface;html=1;verticalLabelPosition=bottom;sketch=0;fontFamily=Helvetica;fontSize=11;fontColor=default;labelBackgroundColor=default;rotation=40;" parent="w6JVnywSqi0pG-dbaEL0-17" vertex="1">
          <mxGeometry x="3.9270893885815688" y="1.5644465877501612" width="10.755821222836863" height="16.081106824499678" as="geometry" />
        </mxCell>
        <mxCell id="w6JVnywSqi0pG-dbaEL0-18" value="" style="group" parent="1" vertex="1" connectable="0">
          <mxGeometry x="1205" y="260" width="15" height="10" as="geometry" />
        </mxCell>
        <mxCell id="w6JVnywSqi0pG-dbaEL0-56" value="" style="group" parent="w6JVnywSqi0pG-dbaEL0-18" vertex="1" connectable="0">
          <mxGeometry y="-8.881784197001252e-16" width="15" height="10" as="geometry" />
        </mxCell>
        <mxCell id="WClAUrq9EjlUU-zj0WXr-15" value="" style="shape=connector;rounded=0;orthogonalLoop=1;jettySize=auto;html=1;strokeColor=default;align=center;verticalAlign=middle;fontFamily=Helvetica;fontSize=12;fontColor=#333333;labelBackgroundColor=default;endArrow=none;endFill=0;exitX=0.419;exitY=1.013;exitDx=0;exitDy=0;exitPerimeter=0;" parent="w6JVnywSqi0pG-dbaEL0-56" source="WClAUrq9EjlUU-zj0WXr-1" target="WClAUrq9EjlUU-zj0WXr-14" edge="1">
          <mxGeometry relative="1" as="geometry">
            <mxPoint x="-202.23941036241285" y="-16.566672539201136" as="sourcePoint" />
          </mxGeometry>
        </mxCell>
        <mxCell id="w6JVnywSqi0pG-dbaEL0-12" value="" style="shape=requiredInterface;html=1;verticalLabelPosition=bottom;sketch=0;fontFamily=Helvetica;fontSize=11;fontColor=default;labelBackgroundColor=default;rotation=90;" parent="w6JVnywSqi0pG-dbaEL0-56" vertex="1">
          <mxGeometry x="2.5" y="-2.499999999999999" width="10" height="15" as="geometry" />
        </mxCell>
        <mxCell id="w6JVnywSqi0pG-dbaEL0-19" value="" style="group" parent="1" vertex="1" connectable="0">
          <mxGeometry x="1936.308870711756" y="454.790728628175" width="19.26" height="18.5" as="geometry" />
        </mxCell>
        <mxCell id="w6JVnywSqi0pG-dbaEL0-20" value="" style="shape=connector;rounded=0;orthogonalLoop=1;jettySize=auto;html=1;strokeColor=default;align=center;verticalAlign=middle;fontFamily=Helvetica;fontSize=12;fontColor=#333333;labelBackgroundColor=default;endArrow=none;endFill=0;" parent="w6JVnywSqi0pG-dbaEL0-19" edge="1">
          <mxGeometry relative="1" as="geometry" />
        </mxCell>
        <mxCell id="w6JVnywSqi0pG-dbaEL0-28" value="" style="group" parent="1" vertex="1" connectable="0">
          <mxGeometry x="1783.296284243574" y="1163.140439237294" width="19.675172936364106" height="18.720578781762015" as="geometry" />
        </mxCell>
        <mxCell id="WClAUrq9EjlUU-zj0WXr-83" value="" style="edgeStyle=none;shape=connector;rounded=0;orthogonalLoop=1;jettySize=auto;html=1;strokeColor=default;align=center;verticalAlign=middle;fontFamily=Helvetica;fontSize=12;fontColor=default;labelBackgroundColor=default;endArrow=none;endFill=0;entryX=0.75;entryY=0;entryDx=0;entryDy=0;exitX=0.113;exitY=0.714;exitDx=0;exitDy=0;exitPerimeter=0;" parent="w6JVnywSqi0pG-dbaEL0-28" source="WClAUrq9EjlUU-zj0WXr-68" target="WClAUrq9EjlUU-zj0WXr-82" edge="1">
          <mxGeometry relative="1" as="geometry">
            <mxPoint x="446.70371575642594" y="-153.140439237294" as="sourcePoint" />
            <mxPoint x="616.7037157564259" y="516.859560762706" as="targetPoint" />
          </mxGeometry>
        </mxCell>
        <mxCell id="w6JVnywSqi0pG-dbaEL0-25" value="" style="shape=requiredInterface;html=1;verticalLabelPosition=bottom;sketch=0;fontFamily=Helvetica;fontSize=11;fontColor=default;labelBackgroundColor=default;rotation=-195;" parent="w6JVnywSqi0pG-dbaEL0-28" vertex="1">
          <mxGeometry x="1.6625864681820985" y="1.8602893908810074" width="16.35" height="15" as="geometry" />
        </mxCell>
        <mxCell id="w6JVnywSqi0pG-dbaEL0-29" value="" style="group" parent="1" vertex="1" connectable="0">
          <mxGeometry x="1982.036284243574" y="1010.6404392372939" width="19.675172936364106" height="18.72057878176213" as="geometry" />
        </mxCell>
        <mxCell id="WClAUrq9EjlUU-zj0WXr-74" value="" style="edgeStyle=none;shape=connector;rounded=0;orthogonalLoop=1;jettySize=auto;html=1;strokeColor=default;align=center;verticalAlign=middle;fontFamily=Helvetica;fontSize=12;fontColor=default;labelBackgroundColor=default;endArrow=none;endFill=0;" parent="w6JVnywSqi0pG-dbaEL0-29" source="WClAUrq9EjlUU-zj0WXr-68" target="WClAUrq9EjlUU-zj0WXr-73" edge="1">
          <mxGeometry relative="1" as="geometry" />
        </mxCell>
        <mxCell id="w6JVnywSqi0pG-dbaEL0-21" value="" style="shape=requiredInterface;html=1;verticalLabelPosition=bottom;sketch=0;fontFamily=Helvetica;fontSize=11;fontColor=default;labelBackgroundColor=default;rotation=-180;" parent="w6JVnywSqi0pG-dbaEL0-29" vertex="1">
          <mxGeometry x="1.6625864681820985" y="1.860289390881121" width="16.35" height="15" as="geometry" />
        </mxCell>
        <mxCell id="w6JVnywSqi0pG-dbaEL0-34" value="" style="group" parent="1" vertex="1" connectable="0">
          <mxGeometry x="1911.6341262229437" y="1284.3356869948072" width="26.399488977624515" height="26.050083266735783" as="geometry" />
        </mxCell>
        <mxCell id="WClAUrq9EjlUU-zj0WXr-67" value="" style="shape=connector;rounded=0;orthogonalLoop=1;jettySize=auto;html=1;strokeColor=default;align=center;verticalAlign=middle;fontFamily=Helvetica;fontSize=12;fontColor=#333333;labelBackgroundColor=default;endArrow=none;endFill=0;" parent="w6JVnywSqi0pG-dbaEL0-34" source="WClAUrq9EjlUU-zj0WXr-68" target="WClAUrq9EjlUU-zj0WXr-70" edge="1">
          <mxGeometry relative="1" as="geometry" />
        </mxCell>
        <mxCell id="w6JVnywSqi0pG-dbaEL0-30" value="" style="group;rotation=-30;" parent="w6JVnywSqi0pG-dbaEL0-34" vertex="1" connectable="0">
          <mxGeometry x="3.362158020630204" y="3.664752242486884" width="19.675172936364106" height="18.720578781762015" as="geometry" />
        </mxCell>
        <mxCell id="w6JVnywSqi0pG-dbaEL0-32" value="" style="shape=requiredInterface;html=1;verticalLabelPosition=bottom;sketch=0;fontFamily=Helvetica;fontSize=11;fontColor=default;labelBackgroundColor=default;rotation=-225;" parent="w6JVnywSqi0pG-dbaEL0-30" vertex="1">
          <mxGeometry x="2" y="2" width="16.35" height="15" as="geometry" />
        </mxCell>
        <mxCell id="w6JVnywSqi0pG-dbaEL0-40" value="" style="group" parent="1" vertex="1" connectable="0">
          <mxGeometry x="2113.258922507435" y="1188.785780423854" width="27.149896408642235" height="27.149896408642235" as="geometry" />
        </mxCell>
        <mxCell id="WClAUrq9EjlUU-zj0WXr-66" value="" style="shape=connector;rounded=0;orthogonalLoop=1;jettySize=auto;html=1;strokeColor=default;align=center;verticalAlign=middle;fontFamily=Helvetica;fontSize=12;fontColor=#333333;labelBackgroundColor=default;endArrow=none;endFill=0;" parent="w6JVnywSqi0pG-dbaEL0-40" source="WClAUrq9EjlUU-zj0WXr-68" target="WClAUrq9EjlUU-zj0WXr-69" edge="1">
          <mxGeometry relative="1" as="geometry" />
        </mxCell>
        <mxCell id="w6JVnywSqi0pG-dbaEL0-35" value="" style="group;rotation=-45;" parent="w6JVnywSqi0pG-dbaEL0-40" vertex="1" connectable="0">
          <mxGeometry x="3.7373617361390643" y="4.21465881344011" width="19.675172936364106" height="18.720578781762015" as="geometry" />
        </mxCell>
        <mxCell id="w6JVnywSqi0pG-dbaEL0-37" value="" style="shape=requiredInterface;html=1;verticalLabelPosition=bottom;sketch=0;fontFamily=Helvetica;fontSize=11;fontColor=default;labelBackgroundColor=default;rotation=-240;" parent="w6JVnywSqi0pG-dbaEL0-35" vertex="1">
          <mxGeometry x="2" y="2" width="16.35" height="15" as="geometry" />
        </mxCell>
        <mxCell id="w6JVnywSqi0pG-dbaEL0-45" value="" style="group" parent="1" vertex="1" connectable="0">
          <mxGeometry x="2271.651797892477" y="1328.744774172358" width="20.364145638557602" height="21.23190891163449" as="geometry" />
        </mxCell>
        <mxCell id="WClAUrq9EjlUU-zj0WXr-77" value="" style="edgeStyle=none;shape=connector;rounded=0;orthogonalLoop=1;jettySize=auto;html=1;strokeColor=default;align=center;verticalAlign=middle;fontFamily=Helvetica;fontSize=12;fontColor=default;labelBackgroundColor=default;endArrow=none;endFill=0;" parent="w6JVnywSqi0pG-dbaEL0-45" source="WClAUrq9EjlUU-zj0WXr-68" target="WClAUrq9EjlUU-zj0WXr-76" edge="1">
          <mxGeometry relative="1" as="geometry" />
        </mxCell>
        <mxCell id="w6JVnywSqi0pG-dbaEL0-41" value="" style="group;rotation=-85;" parent="w6JVnywSqi0pG-dbaEL0-45" vertex="1" connectable="0">
          <mxGeometry x="0.34448635109674797" y="1.2556650649362382" width="19.675172936364106" height="18.720578781762015" as="geometry" />
        </mxCell>
        <mxCell id="w6JVnywSqi0pG-dbaEL0-43" value="" style="shape=requiredInterface;html=1;verticalLabelPosition=bottom;sketch=0;fontFamily=Helvetica;fontSize=11;fontColor=default;labelBackgroundColor=default;rotation=-280;" parent="w6JVnywSqi0pG-dbaEL0-41" vertex="1">
          <mxGeometry x="2" y="2" width="16.35" height="15" as="geometry" />
        </mxCell>
        <mxCell id="w6JVnywSqi0pG-dbaEL0-52" value="" style="group" parent="1" vertex="1" connectable="0">
          <mxGeometry x="2609.996284243574" y="1017.0004392372941" width="16.35" height="15" as="geometry" />
        </mxCell>
        <mxCell id="WClAUrq9EjlUU-zj0WXr-81" value="" style="edgeStyle=none;shape=connector;rounded=0;orthogonalLoop=1;jettySize=auto;html=1;strokeColor=default;align=center;verticalAlign=middle;fontFamily=Helvetica;fontSize=12;fontColor=default;labelBackgroundColor=default;endArrow=none;endFill=0;" parent="w6JVnywSqi0pG-dbaEL0-52" source="WClAUrq9EjlUU-zj0WXr-68" target="WClAUrq9EjlUU-zj0WXr-80" edge="1">
          <mxGeometry relative="1" as="geometry" />
        </mxCell>
        <mxCell id="w6JVnywSqi0pG-dbaEL0-51" value="" style="shape=requiredInterface;html=1;verticalLabelPosition=bottom;sketch=0;fontFamily=Helvetica;fontSize=11;fontColor=default;labelBackgroundColor=default;rotation=0;" parent="w6JVnywSqi0pG-dbaEL0-52" vertex="1">
          <mxGeometry width="16.35" height="15" as="geometry" />
        </mxCell>
        <mxCell id="w6JVnywSqi0pG-dbaEL0-53" value="" style="group" parent="1" vertex="1" connectable="0">
          <mxGeometry x="2593.333697775392" y="1080.140149846413" width="19.67517293636365" height="18.720578781762242" as="geometry" />
        </mxCell>
        <mxCell id="WClAUrq9EjlUU-zj0WXr-85" value="" style="edgeStyle=none;shape=connector;rounded=0;orthogonalLoop=1;jettySize=auto;html=1;strokeColor=default;align=center;verticalAlign=middle;fontFamily=Helvetica;fontSize=12;fontColor=default;labelBackgroundColor=default;endArrow=none;endFill=0;" parent="w6JVnywSqi0pG-dbaEL0-53" source="WClAUrq9EjlUU-zj0WXr-68" target="WClAUrq9EjlUU-zj0WXr-84" edge="1">
          <mxGeometry relative="1" as="geometry">
            <Array as="points" />
          </mxGeometry>
        </mxCell>
        <mxCell id="w6JVnywSqi0pG-dbaEL0-50" value="" style="shape=requiredInterface;html=1;verticalLabelPosition=bottom;sketch=0;fontFamily=Helvetica;fontSize=11;fontColor=default;labelBackgroundColor=default;rotation=15;" parent="w6JVnywSqi0pG-dbaEL0-53" vertex="1">
          <mxGeometry x="1.6625864681818712" y="1.8602893908812348" width="16.35" height="15" as="geometry" />
        </mxCell>
        <mxCell id="w6JVnywSqi0pG-dbaEL0-54" value="" style="group" parent="1" vertex="1" connectable="0">
          <mxGeometry x="2547.087385448475" y="1174.416540442195" width="22.167797590198006" height="22.167797590198234" as="geometry" />
        </mxCell>
        <mxCell id="WClAUrq9EjlUU-zj0WXr-72" value="" style="edgeStyle=none;shape=connector;rounded=0;orthogonalLoop=1;jettySize=auto;html=1;strokeColor=default;align=center;verticalAlign=middle;fontFamily=Helvetica;fontSize=12;fontColor=default;labelBackgroundColor=default;endArrow=none;endFill=0;" parent="w6JVnywSqi0pG-dbaEL0-54" source="WClAUrq9EjlUU-zj0WXr-68" target="WClAUrq9EjlUU-zj0WXr-71" edge="1">
          <mxGeometry relative="1" as="geometry" />
        </mxCell>
        <mxCell id="w6JVnywSqi0pG-dbaEL0-49" value="" style="shape=requiredInterface;html=1;verticalLabelPosition=bottom;sketch=0;fontFamily=Helvetica;fontSize=11;fontColor=default;labelBackgroundColor=default;rotation=45;" parent="w6JVnywSqi0pG-dbaEL0-54" vertex="1">
          <mxGeometry x="2.9088987950990486" y="3.5838987950992305" width="16.35" height="15" as="geometry" />
        </mxCell>
        <mxCell id="w6JVnywSqi0pG-dbaEL0-55" value="" style="group" parent="1" vertex="1" connectable="0">
          <mxGeometry x="2486.087385448475" y="1234.416540442195" width="22.167797590198006" height="22.167797590198234" as="geometry" />
        </mxCell>
        <mxCell id="WClAUrq9EjlUU-zj0WXr-79" value="" style="edgeStyle=none;shape=connector;rounded=0;orthogonalLoop=1;jettySize=auto;html=1;strokeColor=default;align=center;verticalAlign=middle;fontFamily=Helvetica;fontSize=12;fontColor=default;labelBackgroundColor=default;endArrow=none;endFill=0;" parent="w6JVnywSqi0pG-dbaEL0-55" source="WClAUrq9EjlUU-zj0WXr-68" target="WClAUrq9EjlUU-zj0WXr-78" edge="1">
          <mxGeometry relative="1" as="geometry" />
        </mxCell>
        <mxCell id="w6JVnywSqi0pG-dbaEL0-46" value="" style="shape=requiredInterface;html=1;verticalLabelPosition=bottom;sketch=0;fontFamily=Helvetica;fontSize=11;fontColor=default;labelBackgroundColor=default;rotation=45;" parent="w6JVnywSqi0pG-dbaEL0-55" vertex="1">
          <mxGeometry x="2.9088987950990486" y="3.5838987950992305" width="16.35" height="15" as="geometry" />
        </mxCell>
        <mxCell id="WClAUrq9EjlUU-zj0WXr-262" value="&lt;font face=&quot;Georgia&quot;&gt;Transaction&lt;/font&gt;" style="whiteSpace=wrap;html=1;fillColor=#f5f5f5;strokeColor=#666666;fontColor=#333333;rounded=0;" parent="1" vertex="1">
          <mxGeometry x="2120" y="205" width="120" height="50" as="geometry" />
        </mxCell>
        <mxCell id="WClAUrq9EjlUU-zj0WXr-68" value="&lt;font face=&quot;Georgia&quot;&gt;d&lt;/font&gt;" style="ellipse;whiteSpace=wrap;html=1;fillColor=#f5f5f5;strokeColor=#666666;fontColor=#333333;rounded=0;" parent="1" vertex="1">
          <mxGeometry x="2212.5" y="967.5" width="45" height="50" as="geometry" />
        </mxCell>
        <mxCell id="eoPI0Xw65L_IwqqJkxbl-13" value="" style="group" parent="1" vertex="1" connectable="0">
          <mxGeometry x="2138.629872981078" y="6.0048094716166815" width="16.160254037844425" height="20.69" as="geometry" />
        </mxCell>
        <mxCell id="eoPI0Xw65L_IwqqJkxbl-14" value="" style="shape=connector;rounded=0;orthogonalLoop=1;jettySize=auto;html=1;strokeColor=default;align=center;verticalAlign=middle;fontFamily=Helvetica;fontSize=12;fontColor=#333333;labelBackgroundColor=default;endArrow=none;endFill=0;" parent="eoPI0Xw65L_IwqqJkxbl-13" target="eoPI0Xw65L_IwqqJkxbl-12" edge="1">
          <mxGeometry relative="1" as="geometry" />
        </mxCell>
        <mxCell id="eoPI0Xw65L_IwqqJkxbl-23" value="" style="group;rotation=15;" parent="1" vertex="1" connectable="0">
          <mxGeometry x="2134.17" y="168" width="25.08" height="29" as="geometry" />
        </mxCell>
        <mxCell id="eoPI0Xw65L_IwqqJkxbl-15" value="" style="shape=requiredInterface;html=1;verticalLabelPosition=bottom;sketch=0;fontFamily=Helvetica;fontSize=11;fontColor=default;labelBackgroundColor=default;rotation=-135;" parent="eoPI0Xw65L_IwqqJkxbl-23" vertex="1">
          <mxGeometry x="4.465811965811966" y="1.7575757575757576" width="14.40530387752181" height="25.179300726036242" as="geometry" />
        </mxCell>
        <mxCell id="TL0oi55XwLSw_DGboPtc-1" value="" style="edgeStyle=none;shape=connector;rounded=0;orthogonalLoop=1;jettySize=auto;html=1;strokeColor=default;align=center;verticalAlign=middle;fontFamily=Helvetica;fontSize=12;fontColor=default;labelBackgroundColor=default;endArrow=none;endFill=0;exitX=0.5;exitY=1;exitDx=0;exitDy=0;" parent="1" source="eoPI0Xw65L_IwqqJkxbl-12" target="TL0oi55XwLSw_DGboPtc-2" edge="1">
          <mxGeometry relative="1" as="geometry">
            <mxPoint x="2043" y="108" as="sourcePoint" />
          </mxGeometry>
        </mxCell>
        <mxCell id="TL0oi55XwLSw_DGboPtc-2" value="card number" style="ellipse;whiteSpace=wrap;html=1;rounded=0;" parent="1" vertex="1">
          <mxGeometry x="2150" y="107.5" width="100" height="35" as="geometry" />
        </mxCell>
        <mxCell id="TL0oi55XwLSw_DGboPtc-6" value="" style="edgeStyle=none;shape=connector;rounded=0;orthogonalLoop=1;jettySize=auto;html=1;strokeColor=default;align=center;verticalAlign=middle;fontFamily=Helvetica;fontSize=12;fontColor=default;labelBackgroundColor=default;endArrow=none;endFill=0;exitX=0.128;exitY=0.965;exitDx=0;exitDy=0;exitPerimeter=0;" parent="1" source="WClAUrq9EjlUU-zj0WXr-1" target="TL0oi55XwLSw_DGboPtc-7" edge="1">
          <mxGeometry relative="1" as="geometry">
            <mxPoint x="1185" y="266.5" as="sourcePoint" />
          </mxGeometry>
        </mxCell>
        <mxCell id="TL0oi55XwLSw_DGboPtc-7" value="&lt;u&gt;reffer code&lt;/u&gt;" style="ellipse;whiteSpace=wrap;html=1;rounded=0;" parent="1" vertex="1">
          <mxGeometry x="1017" y="266" width="90" height="40" as="geometry" />
        </mxCell>
        <mxCell id="WClAUrq9EjlUU-zj0WXr-1" value="&lt;font style=&quot;font-size: 15px;&quot; face=&quot;Georgia&quot;&gt;user&lt;/font&gt;" style="rounded=0;whiteSpace=wrap;html=1;fillColor=#f5f5f5;fontColor=#333333;strokeColor=#666666;" parent="1" vertex="1">
          <mxGeometry x="1162.5" y="172.5" width="120" height="60" as="geometry" />
        </mxCell>
        <mxCell id="TL0oi55XwLSw_DGboPtc-8" style="rounded=0;orthogonalLoop=1;jettySize=auto;html=1;entryX=0.05;entryY=0.069;entryDx=0;entryDy=0;endArrow=none;endFill=0;entryPerimeter=0;" parent="1" source="TL0oi55XwLSw_DGboPtc-12" target="LdFAEq9sarEnEC0SSBv0-42" edge="1">
          <mxGeometry relative="1" as="geometry">
            <Array as="points" />
            <mxPoint x="2142.34" y="259.5" as="targetPoint" />
          </mxGeometry>
        </mxCell>
        <mxCell id="TL0oi55XwLSw_DGboPtc-9" value="M" style="edgeLabel;html=1;align=center;verticalAlign=middle;resizable=0;points=[];fontFamily=Helvetica;fontSize=11;fontColor=default;labelBackgroundColor=default;" parent="TL0oi55XwLSw_DGboPtc-8" vertex="1" connectable="0">
          <mxGeometry x="0.1035" relative="1" as="geometry">
            <mxPoint as="offset" />
          </mxGeometry>
        </mxCell>
        <mxCell id="TL0oi55XwLSw_DGboPtc-10" value="" style="rounded=0;orthogonalLoop=1;jettySize=auto;html=1;entryX=0.5;entryY=0;entryDx=0;entryDy=0;endArrow=none;endFill=0;exitX=1;exitY=0.5;exitDx=0;exitDy=0;" parent="1" source="IoCmfV2fsa8UyzMgt1fZ-4" target="TL0oi55XwLSw_DGboPtc-12" edge="1">
          <mxGeometry relative="1" as="geometry">
            <mxPoint x="1981.55" y="334.5" as="sourcePoint" />
            <mxPoint x="2260.7000000000003" y="332.5" as="targetPoint" />
            <Array as="points" />
          </mxGeometry>
        </mxCell>
        <mxCell id="TL0oi55XwLSw_DGboPtc-11" value="N" style="edgeLabel;html=1;align=center;verticalAlign=middle;resizable=0;points=[];fontFamily=Helvetica;fontSize=11;fontColor=default;labelBackgroundColor=default;" parent="TL0oi55XwLSw_DGboPtc-10" vertex="1" connectable="0">
          <mxGeometry x="-0.2016" y="-2" relative="1" as="geometry">
            <mxPoint as="offset" />
          </mxGeometry>
        </mxCell>
        <mxCell id="TL0oi55XwLSw_DGboPtc-12" value="&lt;font face=&quot;Georgia&quot;&gt;INCLUDE&lt;/font&gt;" style="rhombus;whiteSpace=wrap;html=1;fillColor=#f5f5f5;strokeColor=#666666;fontColor=#333333;rounded=0;direction=west;" parent="1" vertex="1">
          <mxGeometry x="2027.5" y="332" width="110" height="62.5" as="geometry" />
        </mxCell>
        <mxCell id="TL0oi55XwLSw_DGboPtc-14" value="" style="edgeStyle=none;shape=link;rounded=0;orthogonalLoop=1;jettySize=auto;html=1;entryX=1;entryY=0.75;entryDx=0;entryDy=0;strokeColor=default;align=center;verticalAlign=middle;fontFamily=Helvetica;fontSize=11;fontColor=default;labelBackgroundColor=default;endArrow=none;endFill=0;exitX=0;exitY=0.25;exitDx=0;exitDy=0;" parent="1" source="LdFAEq9sarEnEC0SSBv0-36" target="TL0oi55XwLSw_DGboPtc-13" edge="1">
          <mxGeometry relative="1" as="geometry">
            <mxPoint x="1980" y="750" as="sourcePoint" />
            <mxPoint x="1772.96" y="710" as="targetPoint" />
          </mxGeometry>
        </mxCell>
        <mxCell id="TL0oi55XwLSw_DGboPtc-15" value="1" style="edgeLabel;html=1;align=center;verticalAlign=middle;resizable=0;points=[];" parent="TL0oi55XwLSw_DGboPtc-14" vertex="1" connectable="0">
          <mxGeometry x="-0.2322" relative="1" as="geometry">
            <mxPoint as="offset" />
          </mxGeometry>
        </mxCell>
        <mxCell id="TL0oi55XwLSw_DGboPtc-50" value="N" style="edgeLabel;html=1;align=center;verticalAlign=middle;resizable=0;points=[];" parent="TL0oi55XwLSw_DGboPtc-14" vertex="1" connectable="0">
          <mxGeometry x="-0.238" y="-1" relative="1" as="geometry">
            <mxPoint as="offset" />
          </mxGeometry>
        </mxCell>
        <mxCell id="TL0oi55XwLSw_DGboPtc-13" value="INCLUDE" style="shape=rhombus;double=1;perimeter=rhombusPerimeter;whiteSpace=wrap;html=1;align=center;fillColor=#f5f5f5;fontColor=#333333;strokeColor=#666666;" parent="1" vertex="1">
          <mxGeometry x="1874.3000000000002" y="625" width="120" height="60" as="geometry" />
        </mxCell>
        <mxCell id="TL0oi55XwLSw_DGboPtc-16" value="" style="edgeStyle=none;shape=connector;rounded=0;orthogonalLoop=1;jettySize=auto;html=1;strokeColor=default;align=center;verticalAlign=middle;fontFamily=Helvetica;fontSize=11;fontColor=default;labelBackgroundColor=default;endArrow=none;endFill=0;entryX=0.5;entryY=1;entryDx=0;entryDy=0;" parent="1" source="WClAUrq9EjlUU-zj0WXr-65" target="LdFAEq9sarEnEC0SSBv0-35" edge="1">
          <mxGeometry relative="1" as="geometry">
            <mxPoint x="2223" y="824" as="sourcePoint" />
            <mxPoint x="2180" y="714" as="targetPoint" />
          </mxGeometry>
        </mxCell>
        <mxCell id="TL0oi55XwLSw_DGboPtc-17" value="1" style="edgeLabel;html=1;align=center;verticalAlign=middle;resizable=0;points=[];" parent="TL0oi55XwLSw_DGboPtc-16" vertex="1" connectable="0">
          <mxGeometry x="-0.1033" y="5" relative="1" as="geometry">
            <mxPoint as="offset" />
          </mxGeometry>
        </mxCell>
        <mxCell id="LdFAEq9sarEnEC0SSBv0-35" value="INCLUDE" style="shape=rhombus;double=1;perimeter=rhombusPerimeter;whiteSpace=wrap;html=1;align=center;fillColor=#f5f5f5;fontColor=#333333;strokeColor=#666666;" parent="1" vertex="1">
          <mxGeometry x="2137.5" y="730" width="120" height="60" as="geometry" />
        </mxCell>
        <mxCell id="TL0oi55XwLSw_DGboPtc-19" value="" style="edgeStyle=none;rounded=0;orthogonalLoop=1;jettySize=auto;html=1;entryX=0.25;entryY=1;entryDx=0;entryDy=0;strokeColor=default;align=center;verticalAlign=middle;fontFamily=Helvetica;fontSize=11;fontColor=default;labelBackgroundColor=default;endArrow=none;endFill=0;exitX=0.25;exitY=0;exitDx=0;exitDy=0;shape=link;" parent="1" source="LdFAEq9sarEnEC0SSBv0-42" target="TL0oi55XwLSw_DGboPtc-18" edge="1">
          <mxGeometry relative="1" as="geometry">
            <mxPoint x="2283" y="543" as="sourcePoint" />
            <mxPoint x="2150" y="255" as="targetPoint" />
          </mxGeometry>
        </mxCell>
        <mxCell id="TL0oi55XwLSw_DGboPtc-48" value="1" style="edgeLabel;html=1;align=center;verticalAlign=middle;resizable=0;points=[];" parent="TL0oi55XwLSw_DGboPtc-19" vertex="1" connectable="0">
          <mxGeometry x="0.0321" y="-2" relative="1" as="geometry">
            <mxPoint as="offset" />
          </mxGeometry>
        </mxCell>
        <mxCell id="TL0oi55XwLSw_DGboPtc-18" value="FINALIZE" style="shape=rhombus;double=1;perimeter=rhombusPerimeter;whiteSpace=wrap;html=1;align=center;fillColor=#f5f5f5;fontColor=#333333;strokeColor=#666666;" parent="1" vertex="1">
          <mxGeometry x="2178" y="405" width="120" height="60" as="geometry" />
        </mxCell>
        <mxCell id="TL0oi55XwLSw_DGboPtc-22" value="" style="edgeStyle=none;shape=connector;rounded=0;orthogonalLoop=1;jettySize=auto;html=1;entryX=0.068;entryY=0.586;entryDx=0;entryDy=0;strokeColor=default;align=center;verticalAlign=middle;fontFamily=Helvetica;fontSize=11;fontColor=default;labelBackgroundColor=default;endArrow=none;endFill=0;exitX=1;exitY=0.25;exitDx=0;exitDy=0;entryPerimeter=0;" parent="1" source="LdFAEq9sarEnEC0SSBv0-68" target="TL0oi55XwLSw_DGboPtc-21" edge="1">
          <mxGeometry relative="1" as="geometry">
            <mxPoint x="1772.96" y="690" as="sourcePoint" />
            <mxPoint x="2254" y="595" as="targetPoint" />
            <Array as="points" />
          </mxGeometry>
        </mxCell>
        <mxCell id="TL0oi55XwLSw_DGboPtc-23" value="1" style="edgeLabel;html=1;align=center;verticalAlign=middle;resizable=0;points=[];" parent="TL0oi55XwLSw_DGboPtc-22" vertex="1" connectable="0">
          <mxGeometry x="-0.1878" y="-1" relative="1" as="geometry">
            <mxPoint as="offset" />
          </mxGeometry>
        </mxCell>
        <mxCell id="TL0oi55XwLSw_DGboPtc-21" value="FINALIZE" style="shape=rhombus;double=1;perimeter=rhombusPerimeter;whiteSpace=wrap;html=1;align=center;fillColor=#f5f5f5;fontColor=#333333;strokeColor=#666666;" parent="1" vertex="1">
          <mxGeometry x="1905" y="552" width="120" height="60" as="geometry" />
        </mxCell>
        <mxCell id="TL0oi55XwLSw_DGboPtc-26" value="" style="edgeStyle=none;shape=connector;rounded=0;orthogonalLoop=1;jettySize=auto;html=1;strokeColor=default;align=center;verticalAlign=middle;fontFamily=Helvetica;fontSize=12;fontColor=default;labelBackgroundColor=default;endArrow=none;endFill=0;exitX=1;exitY=0.5;exitDx=0;exitDy=0;entryX=0;entryY=0.5;entryDx=0;entryDy=0;" parent="1" source="LdFAEq9sarEnEC0SSBv0-42" target="TL0oi55XwLSw_DGboPtc-28" edge="1">
          <mxGeometry relative="1" as="geometry">
            <mxPoint x="2402.02" y="497" as="sourcePoint" />
            <mxPoint x="2403.2869399928513" y="570.4334114265291" as="targetPoint" />
          </mxGeometry>
        </mxCell>
        <mxCell id="TL0oi55XwLSw_DGboPtc-28" value="&lt;span style=&quot;border-bottom: 1px dotted&quot;&gt;date&lt;/span&gt;" style="ellipse;whiteSpace=wrap;html=1;align=center;" parent="1" vertex="1">
          <mxGeometry x="2398" y="505" width="100" height="40" as="geometry" />
        </mxCell>
        <mxCell id="LdFAEq9sarEnEC0SSBv0-68" value="&lt;font face=&quot;Georgia&quot;&gt;Cart&lt;/font&gt;" style="shape=ext;margin=3;double=1;whiteSpace=wrap;html=1;align=center;fillColor=#f5f5f5;fontColor=#333333;strokeColor=#666666;" parent="1" vertex="1">
          <mxGeometry x="1675" y="583" width="100" height="40" as="geometry" />
        </mxCell>
        <mxCell id="TL0oi55XwLSw_DGboPtc-37" value="M" style="edgeStyle=none;shape=link;rounded=0;orthogonalLoop=1;jettySize=auto;html=1;strokeColor=default;align=center;verticalAlign=middle;fontFamily=Helvetica;fontSize=11;fontColor=default;labelBackgroundColor=default;endArrow=none;endFill=0;entryX=0.349;entryY=1.003;entryDx=0;entryDy=0;entryPerimeter=0;exitX=0.5;exitY=1;exitDx=0;exitDy=0;" parent="1" source="TL0oi55XwLSw_DGboPtc-42" target="LdFAEq9sarEnEC0SSBv0-42" edge="1">
          <mxGeometry relative="1" as="geometry">
            <mxPoint x="2259.2983219651" y="668.35083901745" as="sourcePoint" />
            <mxPoint x="2251" y="609" as="targetPoint" />
          </mxGeometry>
        </mxCell>
        <mxCell id="TL0oi55XwLSw_DGboPtc-38" value="" style="edgeStyle=none;shape=connector;rounded=0;orthogonalLoop=1;jettySize=auto;html=1;strokeColor=default;align=center;verticalAlign=middle;fontFamily=Helvetica;fontSize=11;fontColor=default;labelBackgroundColor=default;endArrow=none;endFill=0;entryX=0.561;entryY=0.141;entryDx=0;entryDy=0;exitX=0.588;exitY=0.009;exitDx=0;exitDy=0;exitPerimeter=0;entryPerimeter=0;" parent="1" source="WClAUrq9EjlUU-zj0WXr-65" target="TL0oi55XwLSw_DGboPtc-42" edge="1">
          <mxGeometry relative="1" as="geometry">
            <mxPoint x="2289" y="775" as="sourcePoint" />
            <mxPoint x="2261" y="727.5" as="targetPoint" />
          </mxGeometry>
        </mxCell>
        <mxCell id="TL0oi55XwLSw_DGboPtc-39" value="N" style="edgeLabel;html=1;align=center;verticalAlign=middle;resizable=0;points=[];" parent="TL0oi55XwLSw_DGboPtc-38" vertex="1" connectable="0">
          <mxGeometry x="-0.1033" y="5" relative="1" as="geometry">
            <mxPoint as="offset" />
          </mxGeometry>
        </mxCell>
        <mxCell id="TL0oi55XwLSw_DGboPtc-42" value="&lt;font face=&quot;Georgia&quot;&gt;INCLUDE&lt;/font&gt;" style="rhombus;whiteSpace=wrap;html=1;fillColor=#f5f5f5;strokeColor=#666666;fontColor=#333333;rounded=0;direction=west;" parent="1" vertex="1">
          <mxGeometry x="2257.5" y="659" width="110" height="62.5" as="geometry" />
        </mxCell>
        <mxCell id="LdFAEq9sarEnEC0SSBv0-42" value="&lt;font face=&quot;Georgia&quot;&gt;Order&lt;/font&gt;" style="shape=ext;margin=3;double=1;whiteSpace=wrap;html=1;align=center;fillColor=#f5f5f5;fontColor=#333333;strokeColor=#666666;" parent="1" vertex="1">
          <mxGeometry x="2201" y="530" width="152.5" height="51.25" as="geometry" />
        </mxCell>
        <mxCell id="eoPI0Xw65L_IwqqJkxbl-19" style="rounded=0;orthogonalLoop=1;jettySize=auto;html=1;endArrow=none;endFill=0;entryX=0.5;entryY=0;entryDx=0;entryDy=0;" parent="1" source="eoPI0Xw65L_IwqqJkxbl-12" target="WClAUrq9EjlUU-zj0WXr-262" edge="1">
          <mxGeometry relative="1" as="geometry">
            <mxPoint x="2196.257704613295" y="172.65425996510032" as="targetPoint" />
          </mxGeometry>
        </mxCell>
        <mxCell id="eoPI0Xw65L_IwqqJkxbl-12" value="&lt;font face=&quot;Georgia&quot;&gt;Bank transaction&lt;/font&gt;" style="whiteSpace=wrap;html=1;fillColor=#f5f5f5;strokeColor=#666666;fontColor=#333333;rounded=0;" parent="1" vertex="1">
          <mxGeometry x="2014" y="112.5" width="122" height="44.5" as="geometry" />
        </mxCell>
        <mxCell id="TL0oi55XwLSw_DGboPtc-54" value="" style="edgeStyle=none;shape=connector;rounded=0;orthogonalLoop=1;jettySize=auto;html=1;strokeColor=default;align=center;verticalAlign=middle;fontFamily=Helvetica;fontSize=11;fontColor=default;labelBackgroundColor=default;endArrow=none;endFill=0;exitX=0;exitY=0.5;exitDx=0;exitDy=0;" parent="1" source="TL0oi55XwLSw_DGboPtc-42" target="TL0oi55XwLSw_DGboPtc-55" edge="1">
          <mxGeometry relative="1" as="geometry">
            <mxPoint x="2350.61" y="677.8124999999998" as="sourcePoint" />
          </mxGeometry>
        </mxCell>
        <mxCell id="TL0oi55XwLSw_DGboPtc-55" value="number" style="ellipse;whiteSpace=wrap;html=1;rounded=0;" parent="1" vertex="1">
          <mxGeometry x="2373.75" y="644" width="76.25" height="47.5" as="geometry" />
        </mxCell>
      </root>
    </mxGraphModel>
  </diagram>
</mxfile>
